<svg xmlns="http://www.w3.org/2000/svg" xmlns:xlink="http://www.w3.org/1999/xlink" width="500" zoomAndPan="magnify" viewBox="0 0 375 374.999991" height="500" preserveAspectRatio="xMidYMid meet" version="1.0"><path fill="#ffffff" d="M 286.730469 75.433594 C 286.414062 75.902344 286.355469 76.398438 286.539062 77.023438 C 286.761719 77.769531 287.332031 78.601562 287.867188 79.183594 C 287.894531 79.207031 287.917969 79.230469 287.941406 79.257812 C 292.125 85.445312 296.300781 91.652344 300.214844 98.046875 C 300.378906 98.324219 300.378906 98.601562 300.214844 98.878906 L 280.554688 129.9375 C 280.457031 130.082031 280.328125 130.183594 280.164062 130.242188 C 280 130.300781 279.835938 130.308594 279.667969 130.261719 C 279.5 130.214844 279.363281 130.121094 279.253906 129.984375 C 279.144531 129.847656 279.085938 129.695312 279.078125 129.519531 C 278.695312 112.476562 278.777344 95.453125 278.699219 78.425781 C 278.695312 78.246094 278.746094 78.082031 278.851562 77.933594 C 278.925781 77.835938 278.90625 77.9375 278.890625 77.894531 C 278.871094 77.855469 278.742188 77.703125 278.585938 77.628906 C 278.429688 77.554688 278.269531 77.585938 278.246094 77.59375 C 278.246094 77.605469 278.246094 77.617188 278.246094 77.628906 C 276.902344 92.03125 277.992188 106.539062 277.675781 121.113281 L 277.792969 129.480469 C 277.789062 129.660156 277.738281 129.820312 277.632812 129.960938 C 277.527344 130.105469 277.390625 130.203125 277.21875 130.253906 C 277.050781 130.304688 276.882812 130.300781 276.714844 130.242188 C 276.546875 130.183594 276.414062 130.082031 276.3125 129.9375 L 256.238281 99.105469 C 256.078125 98.847656 256.066406 98.582031 256.203125 98.308594 C 258.089844 94.457031 260.496094 90.976562 262.753906 87.476562 C 260.308594 89.730469 258.085938 92.203125 256.730469 95.203125 C 256.699219 95.300781 256.648438 95.390625 256.582031 95.46875 C 256.191406 95.839844 255.6875 95.953125 255.292969 96 C 254.898438 96.046875 254.542969 96.03125 254.269531 96.039062 C 253.996094 96.042969 253.824219 96.050781 253.777344 96.074219 C 253.738281 96.09375 253.730469 96.121094 253.703125 96.226562 C 253.695312 96.25 253.710938 96.230469 253.703125 96.265625 C 254.046875 98.1875 253.621094 99.976562 252.832031 101.566406 C 251.988281 103.265625 250.828125 104.800781 249.875 106.1875 C 244.65625 113.96875 239.5 121.773438 234.460938 129.671875 C 234.394531 129.773438 234.3125 129.859375 234.210938 129.925781 C 234.105469 129.992188 233.992188 130.03125 233.871094 130.046875 C 233.75 130.058594 233.632812 130.046875 233.515625 130.007812 C 233.402344 129.96875 233.300781 129.90625 233.210938 129.824219 C 233.140625 129.75 233.117188 129.742188 233.058594 129.746094 C 233 129.75 232.898438 129.8125 232.792969 129.898438 C 232.691406 129.984375 232.59375 130.113281 232.566406 130.203125 C 232.539062 130.289062 232.566406 130.324219 232.605469 130.390625 C 232.722656 130.628906 232.722656 130.871094 232.605469 131.109375 C 230.917969 134.738281 229.328125 138.410156 227.679688 142.054688 C 228.628906 140.601562 229.550781 139.144531 230.523438 137.699219 C 230.621094 137.554688 230.753906 137.453125 230.921875 137.394531 C 231.089844 137.335938 231.257812 137.332031 231.429688 137.382812 C 231.597656 137.4375 231.734375 137.535156 231.839844 137.675781 C 231.945312 137.816406 232 137.976562 232 138.15625 L 232.1875 200.648438 C 232.1875 200.828125 232.136719 200.988281 232.03125 201.128906 C 231.925781 201.273438 231.785156 201.371094 231.617188 201.421875 C 231.449219 201.472656 231.28125 201.46875 231.113281 201.414062 C 230.945312 201.355469 230.8125 201.25 230.710938 201.105469 C 224.882812 192.550781 219.300781 183.863281 213.667969 175.199219 C 213.5625 175.757812 213.574219 176.355469 213.742188 176.976562 C 214.042969 178.078125 214.71875 179.203125 215.449219 180.082031 C 215.472656 180.105469 215.5 180.132812 215.523438 180.160156 C 220.871094 188.25 226.265625 196.300781 231.507812 204.476562 C 231.679688 204.738281 231.691406 205.007812 231.546875 205.289062 C 231.40625 205.566406 231.175781 205.710938 230.863281 205.726562 C 220.179688 206.167969 209.527344 205.988281 198.894531 206.257812 C 198.824219 206.289062 198.800781 206.328125 198.78125 206.40625 C 198.757812 206.507812 198.738281 206.707031 198.820312 206.898438 C 198.902344 207.089844 199.058594 207.257812 199.160156 207.316406 C 199.261719 207.375 199.285156 207.382812 199.425781 207.316406 C 199.523438 207.269531 199.625 207.246094 199.730469 207.242188 C 209.59375 206.988281 219.46875 207.058594 229.308594 206.976562 C 229.632812 206.972656 229.871094 207.113281 230.023438 207.398438 C 230.179688 207.679688 230.167969 207.957031 229.992188 208.226562 L 209.992188 238.222656 C 209.921875 238.332031 209.828125 238.421875 209.710938 238.484375 C 209.597656 238.550781 209.472656 238.582031 209.339844 238.585938 C 209.207031 238.589844 209.082031 238.5625 208.964844 238.507812 C 208.84375 238.449219 208.746094 238.367188 208.667969 238.261719 C 203.535156 231.375 199.148438 224.007812 194.390625 216.976562 C 194.257812 216.777344 194.21875 216.5625 194.273438 216.332031 C 194.238281 216.304688 194.132812 216.265625 194.011719 216.253906 C 193.886719 216.246094 193.8125 216.28125 193.78125 216.292969 C 193.792969 216.367188 193.792969 216.445312 193.78125 216.519531 C 193.492188 217.980469 193.949219 219.253906 194.730469 220.574219 C 195.503906 221.886719 196.589844 223.15625 197.417969 224.585938 C 197.421875 224.597656 197.414062 224.617188 197.417969 224.625 L 207.796875 240.382812 C 208.003906 240.683594 208.003906 240.988281 207.796875 241.289062 L 188.480469 269.355469 C 188.378906 269.503906 188.246094 269.605469 188.078125 269.664062 C 187.910156 269.722656 187.742188 269.726562 187.574219 269.671875 C 187.40625 269.621094 187.265625 269.523438 187.160156 269.382812 C 187.054688 269.238281 187.003906 269.078125 187.003906 268.902344 C 187.214844 255.277344 187.015625 241.613281 187.15625 227.957031 C 187.136719 227.988281 187.09375 228.003906 187.078125 228.035156 C 186.988281 228.222656 187.03125 228.386719 187.003906 228.261719 C 187.042969 228.429688 187.03125 228.59375 186.964844 228.753906 C 184.679688 234.109375 185.664062 240.238281 185.488281 246.289062 C 185.488281 246.304688 185.488281 246.316406 185.488281 246.328125 C 185.570312 253.855469 185.421875 261.359375 185.335938 268.863281 C 185.328125 269.226562 185.152344 269.472656 184.8125 269.601562 C 184.476562 269.730469 184.183594 269.660156 183.933594 269.394531 C 178.691406 263.390625 174.875 256.449219 170.1875 250.265625 C 170.050781 250.085938 170 249.882812 170.035156 249.660156 C 170.0625 249.496094 170.046875 249.480469 169.960938 249.394531 C 169.871094 249.3125 169.664062 249.1875 169.464844 249.167969 C 169.269531 249.152344 169.101562 249.242188 169.050781 249.28125 C 169 249.320312 168.949219 249.28125 168.972656 249.511719 C 168.980469 249.558594 168.980469 249.609375 168.972656 249.660156 C 168.890625 250.699219 169.355469 251.539062 170.035156 252.503906 C 170.683594 253.425781 171.535156 254.40625 172.078125 255.609375 C 172.105469 255.664062 172.132812 255.703125 172.15625 255.757812 L 184.238281 274.015625 C 184.414062 274.285156 184.425781 274.5625 184.269531 274.84375 C 184.117188 275.125 183.878906 275.265625 183.554688 275.265625 L 142.613281 275.984375 C 142.46875 275.980469 142.335938 275.941406 142.214844 275.871094 C 142.09375 275.796875 141.996094 275.699219 141.925781 275.574219 C 141.855469 275.449219 141.824219 275.316406 141.824219 275.171875 C 141.824219 275.03125 141.859375 274.898438 141.929688 274.773438 C 145.269531 269.507812 148.734375 264.324219 152.234375 259.167969 C 149.859375 260.359375 148.097656 262.820312 146.894531 265.34375 C 146.871094 265.382812 146.84375 265.417969 146.816406 265.457031 L 142.839844 270.984375 C 142.628906 271.265625 142.351562 271.363281 142.007812 271.28125 C 141.667969 271.203125 141.464844 270.988281 141.402344 270.644531 C 140.949219 267.488281 141.171875 264.402344 140.792969 261.480469 C 140.292969 261.390625 139.664062 261.914062 139.886719 262.386719 C 139.949219 262.519531 139.972656 262.660156 139.960938 262.804688 C 139.773438 265.296875 140.386719 267.957031 139.960938 270.796875 C 139.914062 271.109375 139.742188 271.320312 139.441406 271.433594 C 139.144531 271.542969 138.875 271.496094 138.636719 271.289062 C 135.375 268.320312 133.84375 264.226562 130.832031 261.820312 C 130.761719 261.898438 130.664062 262.058594 130.644531 262.234375 C 130.601562 262.59375 130.742188 262.90625 130.945312 262.992188 C 131.085938 263.050781 131.199219 263.140625 131.289062 263.257812 C 133.996094 266.90625 136.421875 270.726562 138.902344 274.46875 C 139.074219 274.738281 139.085938 275.015625 138.933594 275.296875 C 138.777344 275.582031 138.539062 275.722656 138.21875 275.71875 C 124.542969 275.882812 110.867188 275.914062 97.199219 275.910156 C 97.136719 275.917969 97.074219 275.917969 97.011719 275.910156 C 96.476562 275.792969 96.023438 275.449219 95.761719 275.039062 C 95.5 274.625 95.4375 274.179688 95.457031 273.75 C 95.492188 272.972656 95.84375 272.242188 96.40625 271.707031 L 96.367188 271.707031 C 100.351562 265.976562 104.433594 260.308594 108.183594 254.472656 C 108.175781 254.464844 108.195312 254.445312 108.183594 254.433594 C 108.125 254.378906 107.945312 254.335938 107.765625 254.320312 C 107.589844 254.304688 107.429688 254.347656 107.351562 254.394531 C 107.269531 254.445312 107.246094 254.429688 107.238281 254.546875 C 107.230469 254.683594 107.191406 254.808594 107.125 254.925781 C 103.496094 260.214844 99.871094 265.503906 96.253906 270.796875 C 96.054688 271.105469 95.773438 271.222656 95.410156 271.148438 C 95.050781 271.074219 94.835938 270.855469 94.777344 270.492188 C 93.253906 261.71875 95.015625 252.988281 93.980469 244.546875 C 93.980469 244.523438 93.980469 244.496094 93.980469 244.472656 C 93.941406 243.855469 94 243.21875 93.941406 242.804688 C 93.921875 242.648438 93.890625 242.589844 93.867188 242.542969 C 93.828125 242.585938 93.738281 242.632812 93.714844 242.691406 C 93.664062 242.824219 93.613281 243.0625 93.640625 243.375 C 93.6875 243.964844 93.929688 244.738281 93.867188 245.609375 C 93.863281 245.652344 93.871094 245.679688 93.867188 245.722656 C 94.070312 254 93.882812 262.289062 93.828125 270.53125 C 93.839844 270.878906 93.6875 271.128906 93.375 271.28125 C 93.0625 271.433594 92.769531 271.398438 92.503906 271.175781 C 88.28125 267.714844 86.402344 262.609375 83.222656 258.867188 C 83.195312 258.839844 83.171875 258.816406 83.148438 258.789062 L 71.632812 242.085938 C 71.5 241.886719 71.464844 241.675781 71.519531 241.441406 C 72.679688 236.417969 76.441406 232.933594 78.453125 228.867188 C 78.453125 228.855469 78.453125 228.84375 78.453125 228.828125 C 79.238281 227.414062 80.257812 226.339844 80.648438 225.269531 C 80.578125 225.261719 80.496094 225.21875 80.421875 225.230469 C 80.296875 225.253906 80.214844 225.320312 80.195312 225.34375 C 80.171875 225.367188 80.179688 225.332031 80.195312 225.421875 C 80.21875 225.613281 80.179688 225.789062 80.082031 225.953125 C 77.382812 230.441406 74.519531 234.808594 71.671875 239.171875 C 71.597656 239.28125 71.503906 239.367188 71.390625 239.433594 C 71.273438 239.496094 71.152344 239.53125 71.019531 239.535156 C 70.886719 239.539062 70.761719 239.511719 70.640625 239.453125 C 70.523438 239.394531 70.425781 239.3125 70.347656 239.207031 C 63.179688 230.234375 58.007812 220.03125 51.484375 210.839844 C 51.175781 210.597656 50.882812 210.335938 50.765625 210.003906 C 50.601562 209.546875 50.582031 209.054688 50.6875 208.605469 C 50.792969 208.15625 51.039062 207.710938 51.445312 207.390625 C 51.777344 207.132812 52.265625 207.085938 52.734375 207.128906 L 52.734375 207.089844 C 52.835938 207.082031 52.9375 207.097656 53.035156 207.089844 C 58.0625 206.675781 63.054688 207.035156 67.960938 207.011719 C 67.953125 206.957031 67.941406 206.878906 67.882812 206.785156 C 67.804688 206.660156 67.671875 206.582031 67.621094 206.558594 C 67.566406 206.539062 67.628906 206.523438 67.582031 206.558594 C 67.417969 206.660156 67.242188 206.699219 67.050781 206.671875 C 62.101562 206.199219 57.046875 206.554688 51.9375 206.371094 C 51.558594 206.5625 51.125 206.65625 50.765625 206.558594 C 50.265625 206.425781 49.90625 206.128906 49.628906 205.761719 C 49.351562 205.398438 49.160156 204.953125 49.171875 204.4375 C 49.183594 204.046875 49.421875 203.652344 49.742188 203.339844 L 49.78125 203.300781 C 51.929688 199.664062 54.21875 196.183594 56.21875 192.546875 C 56.210938 192.539062 56.234375 192.523438 56.21875 192.507812 C 56.160156 192.457031 55.976562 192.363281 55.800781 192.355469 C 55.628906 192.347656 55.480469 192.429688 55.421875 192.46875 C 55.363281 192.511719 55.34375 192.449219 55.347656 192.582031 C 55.359375 192.730469 55.335938 192.867188 55.273438 193 C 53.984375 195.523438 52.429688 197.851562 50.914062 200.15625 C 50.738281 200.417969 50.496094 200.535156 50.183594 200.507812 C 49.871094 200.484375 49.648438 200.328125 49.515625 200.042969 C 47.464844 195.636719 48.828125 190.945312 48.492188 186.863281 C 48.488281 186.8125 48.488281 186.761719 48.492188 186.710938 C 48.558594 185.890625 48.292969 185.007812 48.035156 184.097656 C 47.949219 184.144531 47.863281 184.226562 47.773438 184.363281 C 47.566406 184.671875 47.539062 185.121094 47.660156 185.3125 C 47.734375 185.4375 47.773438 185.578125 47.773438 185.726562 C 47.855469 190.792969 47.917969 195.851562 47.960938 200.914062 C 47.957031 201.085938 47.90625 201.238281 47.804688 201.378906 C 47.707031 201.515625 47.574219 201.609375 47.414062 201.664062 C 47.253906 201.722656 47.089844 201.726562 46.925781 201.675781 C 46.765625 201.628906 46.628906 201.539062 46.523438 201.40625 C 39.113281 191.777344 33.355469 181.097656 26.523438 171.257812 L 26.5625 171.257812 C 26.101562 170.753906 25.949219 170.148438 25.957031 169.628906 C 25.960938 169.167969 26.019531 168.808594 26.070312 168.492188 C 25.960938 168.113281 25.707031 167.921875 25.160156 167.660156 C 24.628906 167.410156 23.917969 167.125 23.265625 166.636719 L 23.265625 166.675781 C 23.050781 166.558594 22.785156 166.445312 22.507812 166.296875 C 22.753906 166.941406 23.09375 167.597656 23.304688 168.417969 C 23.558594 169.417969 23.527344 170.648438 22.734375 171.675781 L 22.660156 171.789062 C 16.996094 181.121094 11.039062 190.242188 5.273438 199.476562 C 5.101562 199.757812 4.851562 199.886719 4.519531 199.863281 C 4.191406 199.835938 3.960938 199.667969 3.835938 199.363281 C 2.296875 195.398438 3.601562 191.328125 3.039062 187.847656 C 3.039062 187.824219 3.039062 187.796875 3.039062 187.773438 C 2.699219 178.632812 2.726562 169.511719 2.773438 160.386719 C 2.714844 160.351562 2.664062 160.277344 2.585938 160.273438 C 2.445312 160.269531 2.246094 160.335938 2.054688 160.464844 C 1.675781 160.71875 1.484375 161.109375 1.601562 161.410156 C 1.632812 161.507812 1.644531 161.609375 1.640625 161.714844 C 1.859375 186.734375 2.179688 211.757812 2.398438 236.785156 C 2.574219 260.832031 2.308594 284.863281 2.09375 308.898438 L 2.925781 308.898438 C 2.980469 299.371094 3.089844 289.808594 3.34375 280.304688 C 3.367188 279.960938 3.539062 279.730469 3.855469 279.605469 C 4.175781 279.480469 4.457031 279.539062 4.707031 279.773438 L 4.746094 279.808594 C 4.785156 279.84375 4.824219 279.882812 4.859375 279.925781 C 11.1875 289.519531 17.421875 299.164062 23.644531 308.824219 C 23.660156 308.847656 23.671875 308.875 23.683594 308.898438 L 26.828125 308.898438 C 32.804688 298.421875 39.71875 288.585938 46.105469 278.445312 C 46.160156 278.339844 46.238281 278.253906 46.332031 278.183594 L 46.445312 278.105469 C 46.585938 278.023438 46.738281 277.984375 46.898438 277.992188 L 46.976562 277.992188 C 47.179688 277.996094 47.359375 278.0625 47.511719 278.203125 C 47.660156 278.339844 47.75 278.507812 47.769531 278.710938 C 48.335938 286.441406 48.03125 294.203125 48.1875 301.855469 C 48.195312 304.21875 48.164062 306.550781 48.148438 308.898438 L 48.757812 308.898438 L 48.757812 279.582031 C 48.753906 279.363281 48.832031 279.171875 48.984375 279.015625 L 49.019531 278.976562 C 49.179688 278.824219 49.371094 278.75 49.589844 278.75 L 49.628906 278.75 C 49.890625 278.746094 50.105469 278.847656 50.269531 279.054688 C 57.382812 288.621094 63.230469 298.976562 69.625 308.898438 L 72.695312 308.898438 C 78.417969 298.648438 85.015625 288.921875 91.367188 279.128906 C 91.484375 278.949219 91.648438 278.835938 91.859375 278.789062 L 92.011719 278.75 C 92.261719 278.691406 92.488281 278.742188 92.691406 278.902344 L 92.84375 279.015625 C 93 279.128906 93.101562 279.28125 93.148438 279.46875 C 94.332031 284.433594 93.425781 289.417969 93.867188 294.089844 C 93.867188 294.113281 93.867188 294.140625 93.867188 294.164062 C 93.90625 299.082031 93.921875 303.988281 93.941406 308.898438 L 94.738281 308.898438 L 94.472656 279.582031 C 94.464844 279.296875 94.578125 279.066406 94.8125 278.902344 L 94.925781 278.824219 C 95.066406 278.742188 95.21875 278.703125 95.382812 278.710938 L 95.457031 278.710938 C 95.730469 278.71875 95.945312 278.832031 96.101562 279.054688 C 102.699219 288.453125 108.710938 298.195312 114.964844 307.761719 L 114.925781 307.800781 C 115.21875 308.117188 115.34375 308.511719 115.492188 308.898438 L 118.75 308.898438 L 138.523438 279.28125 C 138.621094 279.132812 138.753906 279.03125 138.921875 278.972656 C 139.089844 278.914062 139.257812 278.910156 139.429688 278.964844 C 139.597656 279.015625 139.734375 279.113281 139.839844 279.253906 C 139.945312 279.398438 140 279.558594 140 279.734375 L 139.886719 308.898438 L 141.136719 308.898438 L 141.285156 280.566406 C 141.296875 280.402344 141.355469 280.253906 141.457031 280.121094 C 141.558594 279.988281 141.691406 279.898438 141.851562 279.847656 C 142.011719 279.796875 142.171875 279.796875 142.328125 279.84375 C 142.488281 279.894531 142.621094 279.984375 142.726562 280.113281 L 146.097656 284.847656 C 146.109375 284.847656 146.121094 284.847656 146.136719 284.847656 C 151.40625 292.765625 156.691406 300.683594 161.550781 308.898438 L 164.617188 308.898438 L 183.480469 280.304688 C 183.582031 280.15625 183.714844 280.054688 183.882812 279.996094 C 184.050781 279.9375 184.21875 279.933594 184.386719 279.984375 C 184.554688 280.039062 184.695312 280.136719 184.800781 280.277344 C 184.90625 280.421875 184.957031 280.582031 184.957031 280.757812 L 185.109375 308.898438 L 186.925781 308.898438 L 186.964844 281.175781 C 186.964844 280.996094 187.019531 280.835938 187.125 280.695312 C 187.230469 280.550781 187.367188 280.453125 187.535156 280.402344 C 187.707031 280.351562 187.875 280.355469 188.042969 280.414062 C 188.207031 280.472656 188.34375 280.574219 188.441406 280.71875 L 206.773438 308.898438 L 210.863281 308.898438 L 229.421875 280.417969 C 229.523438 280.269531 229.65625 280.167969 229.824219 280.109375 C 229.992188 280.050781 230.160156 280.046875 230.328125 280.101562 C 230.5 280.152344 230.636719 280.25 230.742188 280.390625 C 230.847656 280.535156 230.902344 280.695312 230.902344 280.871094 L 231.089844 308.898438 L 233.058594 308.898438 L 233.136719 281.289062 C 233.136719 281.109375 233.1875 280.949219 233.292969 280.808594 C 233.398438 280.664062 233.539062 280.570312 233.707031 280.515625 C 233.875 280.464844 234.042969 280.46875 234.210938 280.527344 C 234.378906 280.585938 234.511719 280.6875 234.613281 280.832031 L 252.867188 308.898438 L 257.148438 308.898438 L 275.441406 279.886719 C 275.539062 279.742188 275.671875 279.640625 275.835938 279.582031 C 276 279.523438 276.164062 279.515625 276.332031 279.5625 C 276.5 279.609375 276.636719 279.703125 276.746094 279.839844 C 276.851562 279.972656 276.910156 280.128906 276.921875 280.304688 L 277.109375 294.921875 C 277.125 299.574219 277.175781 304.242188 277.222656 308.898438 L 278.625 308.898438 L 278.398438 280.378906 C 278.398438 280.203125 278.449219 280.042969 278.554688 279.898438 C 278.660156 279.757812 278.800781 279.660156 278.96875 279.609375 C 279.136719 279.554688 279.304688 279.558594 279.472656 279.617188 C 279.640625 279.675781 279.773438 279.777344 279.875 279.925781 L 298.925781 308.898438 L 303.207031 308.898438 L 321.878906 279.582031 C 321.976562 279.4375 322.105469 279.335938 322.269531 279.277344 C 322.433594 279.21875 322.597656 279.210938 322.765625 279.257812 C 322.933594 279.308594 323.074219 279.398438 323.179688 279.535156 C 323.289062 279.671875 323.347656 279.824219 323.355469 280 L 323.429688 295.378906 L 323.507812 308.898438 L 324.566406 308.898438 L 324.417969 279.8125 C 324.417969 279.632812 324.46875 279.472656 324.574219 279.332031 C 324.679688 279.1875 324.816406 279.089844 324.988281 279.039062 C 325.15625 278.988281 325.324219 278.992188 325.492188 279.050781 C 325.660156 279.105469 325.792969 279.210938 325.894531 279.355469 L 336.195312 295.035156 L 345.171875 308.898438 L 346.347656 308.898438 L 326.421875 278.445312 C 326.25 278.175781 326.238281 277.902344 326.390625 277.617188 C 326.546875 277.335938 326.785156 277.195312 327.105469 277.195312 C 332.101562 277.199219 337.105469 277.179688 342.105469 277.160156 C 347.105469 277.140625 352.097656 277.121094 357.101562 277.160156 L 367.140625 277.273438 C 367.460938 277.273438 367.699219 277.414062 367.855469 277.695312 C 368.007812 277.976562 367.996094 278.253906 367.820312 278.523438 L 348.089844 308.898438 L 349.300781 308.898438 L 368.199219 279.734375 C 368.300781 279.589844 368.433594 279.484375 368.601562 279.425781 C 368.769531 279.367188 368.9375 279.367188 369.105469 279.417969 C 369.277344 279.46875 369.414062 279.566406 369.519531 279.710938 C 369.625 279.851562 369.675781 280.011719 369.675781 280.1875 L 369.675781 308.898438 L 370.699219 308.898438 L 370.664062 119.710938 C 370.230469 119.269531 369.816406 118.851562 369.488281 118.496094 L 369.414062 128.800781 C 369.414062 128.976562 369.359375 129.136719 369.253906 129.28125 C 369.148438 129.421875 369.011719 129.519531 368.839844 129.570312 C 368.671875 129.625 368.503906 129.621094 368.335938 129.5625 C 368.167969 129.503906 368.035156 129.402344 367.933594 129.253906 L 348.390625 99.03125 C 347.414062 98.292969 346.488281 97.527344 345.550781 96.796875 L 346.234375 97.894531 C 346.417969 98.183594 346.417969 98.472656 346.234375 98.765625 L 326.273438 129.859375 C 326.171875 130.007812 326.039062 130.109375 325.871094 130.167969 C 325.703125 130.226562 325.535156 130.230469 325.367188 130.175781 C 325.195312 130.125 325.058594 130.027344 324.953125 129.886719 C 324.847656 129.742188 324.796875 129.582031 324.796875 129.40625 C 324.726562 114.089844 324.6875 98.785156 324.832031 83.460938 C 324.800781 83.304688 324.765625 83.292969 324.644531 83.234375 C 324.523438 83.175781 324.285156 83.121094 324.074219 83.160156 C 323.863281 83.199219 323.695312 83.339844 323.621094 83.425781 C 323.546875 83.507812 323.539062 83.511719 323.582031 83.691406 C 323.589844 83.753906 323.589844 83.816406 323.582031 83.878906 L 323.28125 129.253906 C 323.273438 129.429688 323.214844 129.582031 323.105469 129.71875 C 322.996094 129.855469 322.859375 129.949219 322.691406 129.996094 C 322.523438 130.042969 322.359375 130.035156 322.195312 129.976562 C 322.03125 129.917969 321.902344 129.816406 321.804688 129.671875 L 302.222656 98.917969 C 302.054688 98.636719 302.054688 98.359375 302.222656 98.082031 L 314.644531 78.5 C 314.320312 78.421875 313.945312 78.429688 313.582031 78.578125 C 312.984375 78.820312 312.523438 79.347656 312.449219 79.902344 C 312.433594 80.023438 312.398438 80.136719 312.332031 80.242188 L 302.109375 95.960938 C 302.035156 96.070312 301.941406 96.160156 301.824219 96.222656 C 301.710938 96.289062 301.585938 96.320312 301.453125 96.324219 C 301.324219 96.328125 301.195312 96.304688 301.078125 96.246094 C 300.960938 96.1875 300.859375 96.105469 300.78125 96 C 295.882812 89.371094 291.632812 82.320312 287.03125 75.585938 C 286.902344 75.507812 286.804688 75.460938 286.730469 75.433594 Z M 255.066406 99.902344 C 255.417969 99.828125 255.699219 99.941406 255.898438 100.242188 L 277.148438 133.496094 C 277.316406 133.757812 277.332031 134.03125 277.1875 134.308594 C 277.046875 134.585938 276.816406 134.734375 276.503906 134.746094 C 262.882812 135.078125 249.265625 134.476562 235.710938 134.632812 C 235.511719 134.636719 235.335938 134.574219 235.179688 134.445312 C 234.726562 134.023438 234.414062 133.460938 234.347656 132.929688 C 234.28125 132.394531 234.402344 131.898438 234.574219 131.453125 C 234.914062 130.574219 235.5 129.859375 235.863281 129.332031 C 235.867188 129.320312 235.855469 129.300781 235.863281 129.292969 C 242.039062 119.589844 248.246094 109.878906 254.535156 100.242188 C 254.664062 100.054688 254.839844 99.941406 255.066406 99.902344 Z M 347.066406 100.128906 C 347.417969 100.054688 347.699219 100.167969 347.898438 100.46875 L 368.996094 133.15625 C 369.171875 133.425781 369.183594 133.703125 369.027344 133.984375 C 368.875 134.265625 368.636719 134.40625 368.3125 134.40625 L 325.96875 134.746094 C 325.648438 134.746094 325.410156 134.609375 325.253906 134.324219 C 325.101562 134.042969 325.113281 133.765625 325.289062 133.496094 L 346.535156 100.46875 C 346.664062 100.28125 346.839844 100.167969 347.066406 100.128906 Z M 300.933594 100.734375 C 301.179688 100.726562 301.179688 100.738281 301.273438 100.734375 C 301.5625 100.726562 301.789062 100.839844 301.957031 101.074219 C 308.828125 111.6875 315.800781 122.273438 322.523438 133.003906 C 322.589844 133.121094 322.628906 133.25 322.632812 133.386719 C 322.636719 133.523438 322.609375 133.652344 322.546875 133.773438 C 322.488281 133.898438 322.398438 133.996094 322.289062 134.074219 C 322.175781 134.152344 322.050781 134.199219 321.917969 134.214844 C 312.695312 135.234375 303.492188 134.238281 294.457031 134.824219 C 289.828125 134.945312 285.207031 134.9375 280.59375 134.9375 C 280.453125 134.933594 280.320312 134.894531 280.195312 134.820312 C 280.074219 134.746094 279.976562 134.648438 279.910156 134.523438 C 279.839844 134.398438 279.804688 134.265625 279.804688 134.125 C 279.804688 133.980469 279.839844 133.847656 279.914062 133.722656 C 286.359375 122.640625 293.394531 111.945312 300.289062 101.1875 C 300.34375 101.113281 300.40625 101.050781 300.480469 101 L 300.628906 100.886719 C 300.71875 100.8125 300.820312 100.761719 300.933594 100.734375 Z M 236.429688 135.464844 L 236.507812 135.464844 C 249.355469 135.789062 262.191406 135.773438 275.0625 135.957031 C 275.207031 135.960938 275.339844 136 275.460938 136.074219 C 275.582031 136.148438 275.679688 136.246094 275.75 136.371094 C 275.820312 136.496094 275.855469 136.628906 275.851562 136.769531 C 275.851562 136.914062 275.816406 137.046875 275.746094 137.171875 C 269.464844 147.433594 263.058594 157.636719 256.582031 167.773438 C 256.507812 167.890625 256.410156 167.980469 256.289062 168.046875 C 256.167969 168.113281 256.035156 168.148438 255.898438 168.148438 C 255.761719 168.148438 255.632812 168.113281 255.511719 168.046875 C 255.390625 167.980469 255.292969 167.890625 255.21875 167.773438 C 248.441406 157.675781 241.894531 147.445312 235.144531 137.359375 C 235.085938 137.265625 235.046875 137.164062 235.03125 137.058594 C 234.941406 136.648438 235.058594 136.246094 235.332031 135.921875 C 235.589844 135.617188 236.011719 135.472656 236.429688 135.503906 Z M 366.609375 135.695312 C 366.929688 135.691406 367.167969 135.832031 367.324219 136.117188 C 367.476562 136.398438 367.464844 136.671875 367.292969 136.945312 L 347.332031 167.242188 C 347.257812 167.359375 347.160156 167.453125 347.039062 167.519531 C 346.917969 167.585938 346.789062 167.617188 346.648438 167.617188 C 346.511719 167.617188 346.382812 167.585938 346.261719 167.519531 C 346.140625 167.453125 346.042969 167.359375 345.96875 167.242188 C 339.453125 157.871094 333.597656 148.128906 327.410156 138.609375 C 327.222656 138.320312 327.222656 138.027344 327.410156 137.738281 C 328.125 136.5625 329.367188 136.199219 330.4375 136.148438 C 331.511719 136.097656 332.550781 136.246094 333.242188 136.148438 C 333.265625 136.148438 333.292969 136.148438 333.316406 136.148438 C 344.414062 135.851562 355.523438 135.800781 366.609375 135.695312 Z M 283.511719 135.996094 C 284.160156 135.972656 284.820312 135.964844 285.480469 135.996094 L 285.519531 135.996094 L 320.554688 136.035156 C 320.695312 136.039062 320.828125 136.078125 320.949219 136.148438 C 321.070312 136.222656 321.167969 136.324219 321.238281 136.445312 C 321.308594 136.570312 321.34375 136.703125 321.34375 136.847656 C 321.339844 136.988281 321.304688 137.121094 321.234375 137.246094 C 315.304688 146.769531 309.195312 156.195312 303.128906 165.617188 C 303.058594 166.027344 302.914062 166.433594 302.636719 166.675781 C 302.25 167.015625 301.777344 167.140625 301.3125 167.167969 C 300.847656 167.195312 300.375 167.089844 299.949219 166.789062 C 299.628906 166.5625 299.445312 166.195312 299.34375 165.765625 L 299.304688 165.730469 C 293.3125 156.203125 287.109375 146.824219 280.933594 137.398438 C 280.859375 137.28125 280.8125 137.152344 280.800781 137.015625 C 280.792969 136.875 280.816406 136.742188 280.871094 136.617188 C 280.929688 136.488281 281.015625 136.382812 281.128906 136.300781 C 281.238281 136.21875 281.363281 136.167969 281.503906 136.148438 C 282.175781 136.0625 282.847656 136.023438 283.511719 135.996094 Z M 276.957031 138.078125 C 277.074219 138.058594 277.191406 138.066406 277.308594 138.097656 C 277.421875 138.128906 277.523438 138.179688 277.617188 138.257812 C 277.707031 138.335938 277.777344 138.425781 277.828125 138.535156 C 277.878906 138.640625 277.90625 138.757812 277.90625 138.875 L 278.285156 166.902344 L 278.019531 199.816406 C 278.007812 199.984375 277.949219 200.132812 277.847656 200.265625 C 277.746094 200.394531 277.613281 200.488281 277.453125 200.539062 C 277.296875 200.589844 277.136719 200.589844 276.976562 200.539062 C 276.816406 200.492188 276.683594 200.402344 276.578125 200.273438 C 269.710938 190.671875 263.695312 180.546875 257.074219 170.878906 C 256.929688 170.652344 256.902344 170.414062 256.996094 170.160156 C 258.867188 165.164062 262.21875 161.070312 264.648438 156.675781 C 264.660156 156.652344 264.671875 156.625 264.6875 156.601562 L 276.425781 138.421875 C 276.554688 138.230469 276.734375 138.117188 276.957031 138.078125 Z M 279.535156 138.191406 C 279.707031 138.144531 279.875 138.148438 280.042969 138.210938 C 280.214844 138.277344 280.34375 138.382812 280.441406 138.535156 L 282.867188 142.171875 C 282.867188 142.183594 282.867188 142.195312 282.867188 142.207031 C 288.570312 151.246094 294.445312 160.179688 300.136719 169.25 C 300.304688 169.527344 300.304688 169.808594 300.136719 170.085938 C 293.792969 180.027344 287.492188 190.039062 281.046875 199.929688 C 280.847656 200.242188 280.566406 200.359375 280.207031 200.285156 C 279.84375 200.210938 279.632812 199.992188 279.570312 199.628906 C 278.664062 194.585938 279.246094 189.558594 279.078125 184.703125 C 279.078125 184.691406 279.078125 184.679688 279.078125 184.667969 C 279.285156 169.457031 279.089844 154.214844 278.964844 138.988281 C 278.960938 138.808594 279.011719 138.644531 279.117188 138.496094 C 279.222656 138.347656 279.359375 138.246094 279.535156 138.191406 Z M 368.238281 138.230469 C 368.363281 138.199219 368.484375 138.191406 368.609375 138.21875 C 368.734375 138.242188 368.847656 138.292969 368.949219 138.371094 C 369.050781 138.449219 369.128906 138.546875 369.183594 138.664062 C 369.238281 138.777344 369.261719 138.898438 369.261719 139.027344 L 369.109375 199.515625 C 369.109375 199.691406 369.054688 199.851562 368.949219 199.992188 C 368.84375 200.136719 368.707031 200.234375 368.539062 200.285156 C 368.367188 200.335938 368.199219 200.335938 368.035156 200.277344 C 367.867188 200.21875 367.730469 200.113281 367.632812 199.96875 C 360.890625 190.066406 354.234375 180.125 347.746094 170.046875 C 347.5625 169.757812 347.5625 169.464844 347.746094 169.175781 C 354.074219 158.722656 360.996094 148.679688 367.785156 138.570312 C 367.894531 138.402344 368.042969 138.289062 368.238281 138.230469 Z M 234.195312 138.34375 C 234.390625 138.402344 234.542969 138.515625 234.652344 138.6875 C 241.675781 148.632812 248.21875 158.867188 254.761719 169.101562 C 254.894531 169.316406 254.917969 169.542969 254.839844 169.78125 C 253.835938 173.003906 251.554688 175.386719 250.253906 178 C 250.246094 178.027344 250.230469 178.050781 250.21875 178.078125 L 234.992188 200.839844 C 234.890625 200.984375 234.757812 201.089844 234.589844 201.148438 C 234.421875 201.207031 234.253906 201.207031 234.085938 201.15625 C 233.917969 201.105469 233.777344 201.007812 233.671875 200.863281 C 233.566406 200.722656 233.515625 200.5625 233.515625 200.386719 C 233.304688 180.019531 233.117188 159.65625 232.945312 139.292969 C 232.945312 139.089844 233.007812 138.914062 233.136719 138.761719 C 233.164062 138.730469 233.207031 138.648438 233.363281 138.535156 C 233.515625 138.421875 233.847656 138.253906 234.195312 138.34375 Z M 322.296875 138.457031 C 322.417969 138.425781 322.542969 138.421875 322.667969 138.445312 C 322.792969 138.46875 322.90625 138.523438 323.003906 138.601562 C 323.105469 138.679688 323.183594 138.773438 323.238281 138.890625 C 323.292969 139.003906 323.320312 139.125 323.316406 139.253906 L 323.355469 146.714844 C 323.074219 163.175781 323.257812 179.652344 322.976562 196.144531 C 323.171875 196.90625 322.988281 197.652344 322.558594 198.265625 C 322.316406 198.613281 321.96875 198.949219 321.460938 199.058594 C 320.957031 199.171875 320.398438 198.980469 319.984375 198.605469 C 319.925781 198.5625 319.878906 198.511719 319.832031 198.453125 C 318.152344 196.046875 316.984375 193.449219 315.441406 191.179688 C 315.4375 191.167969 315.4375 191.15625 315.441406 191.144531 C 311.386719 184.488281 306.847656 178.082031 302.636719 171.449219 C 302.574219 171.34375 302.535156 171.230469 302.523438 171.109375 C 302.375 169.328125 303.058594 167.808594 303.851562 166.488281 C 304.640625 165.164062 305.527344 163.957031 306.046875 162.773438 C 306.070312 162.746094 306.09375 162.722656 306.121094 162.699219 C 311.195312 154.617188 316.53125 146.703125 321.839844 138.800781 C 321.949219 138.628906 322.101562 138.515625 322.296875 138.457031 Z M 325.171875 138.800781 C 325.46875 138.734375 325.722656 138.808594 325.929688 139.027344 L 326.082031 139.179688 C 326.125 139.210938 326.164062 139.25 326.195312 139.292969 C 332.632812 148.902344 338.734375 158.703125 345.019531 168.378906 C 345.121094 168.542969 345.160156 168.71875 345.132812 168.910156 C 345.027344 170.25 344.410156 171.316406 343.769531 172.242188 C 343.132812 173.167969 342.480469 173.976562 342.140625 174.820312 C 342.121094 174.871094 342.097656 174.921875 342.066406 174.96875 C 336.859375 183.105469 331.539062 191.148438 326.234375 199.210938 C 326.160156 199.320312 326.066406 199.410156 325.953125 199.472656 C 325.835938 199.539062 325.714844 199.570312 325.582031 199.574219 C 325.449219 199.578125 325.324219 199.550781 325.203125 199.496094 C 325.085938 199.4375 324.988281 199.355469 324.910156 199.25 C 324.0625 198.097656 323.945312 196.789062 323.960938 195.613281 C 323.980469 194.4375 324.097656 193.320312 323.921875 192.429688 C 323.917969 192.367188 323.917969 192.304688 323.921875 192.242188 C 324.347656 174.691406 324.390625 157.164062 324.566406 139.59375 C 324.566406 139.40625 324.621094 139.242188 324.734375 139.09375 C 324.847656 138.945312 324.992188 138.847656 325.171875 138.800781 Z M 346.234375 171.222656 C 346.40625 171.171875 346.574219 171.175781 346.742188 171.238281 C 346.914062 171.304688 347.042969 171.410156 347.140625 171.5625 L 352.445312 179.441406 L 368.617188 203.757812 C 368.792969 204.027344 368.804688 204.300781 368.648438 204.585938 C 368.496094 204.867188 368.257812 205.007812 367.933594 205.007812 C 353.890625 205.136719 339.859375 204.800781 325.855469 205.007812 C 325.734375 205.003906 325.621094 204.980469 325.515625 204.929688 C 325.40625 204.878906 325.316406 204.808594 325.238281 204.71875 C 325.160156 204.625 325.105469 204.523438 325.078125 204.40625 C 325.046875 204.292969 325.039062 204.175781 325.058594 204.058594 C 325.917969 199.585938 329.300781 196.53125 331.082031 193.074219 C 331.09375 193.050781 331.105469 193.023438 331.121094 193 L 345.777344 171.5625 C 345.886719 171.390625 346.039062 171.277344 346.234375 171.222656 Z M 24.441406 171.636719 C 24.898438 171.585938 24.773438 171.511719 25.160156 171.714844 C 25.847656 172.085938 26.203125 172.671875 26.484375 173.152344 C 26.765625 173.632812 27.007812 174.046875 27.242188 174.25 C 27.300781 174.292969 27.351562 174.34375 27.394531 174.402344 C 32.460938 181.722656 37.109375 189.285156 42.089844 196.597656 L 47.164062 204.511719 C 47.335938 204.777344 47.351562 205.046875 47.207031 205.324219 C 47.0625 205.605469 46.835938 205.75 46.523438 205.761719 C 33.25 206.671875 20.019531 205.945312 6.828125 205.914062 L 6.828125 205.839844 C 6.382812 205.949219 5.914062 206.054688 5.539062 205.875 C 5.070312 205.652344 4.722656 205.242188 4.519531 204.816406 C 4.148438 204.046875 4.269531 203.035156 4.933594 202.316406 L 4.898438 202.277344 C 10.90625 192.105469 17.253906 182.144531 23.605469 172.207031 C 23.660156 172.132812 23.722656 172.070312 23.796875 172.015625 C 23.792969 172.019531 23.960938 171.75 24.441406 171.636719 Z M 255.597656 171.828125 C 255.921875 171.765625 256.1875 171.863281 256.390625 172.128906 L 257.753906 173.949219 C 257.753906 173.960938 257.753906 173.972656 257.753906 173.984375 C 264.410156 183.371094 270.410156 193.152344 276.730469 202.695312 C 276.832031 202.859375 276.871094 203.035156 276.84375 203.226562 C 276.785156 203.820312 276.527344 204.371094 276.125 204.703125 C 275.722656 205.035156 275.238281 205.164062 274.800781 205.234375 C 273.949219 205.363281 273.132812 205.222656 272.601562 205.195312 L 272.527344 205.195312 C 260.425781 205.519531 248.300781 205.722656 236.203125 205.953125 C 236.054688 205.953125 235.914062 205.914062 235.785156 205.839844 C 235.304688 205.550781 234.957031 205.109375 234.839844 204.628906 C 234.722656 204.144531 234.78125 203.699219 234.914062 203.300781 C 235.179688 202.507812 235.683594 201.835938 235.976562 201.40625 L 255.066406 172.167969 C 255.195312 171.980469 255.371094 171.867188 255.597656 171.828125 Z M 300.59375 171.902344 C 300.96875 171.878906 300.902344 171.902344 301.085938 171.941406 C 301.265625 171.976562 301.417969 172.066406 301.539062 172.207031 C 305.0625 176.308594 307.386719 181.121094 310.402344 185.308594 C 310.414062 185.308594 310.425781 185.308594 310.441406 185.308594 L 321.425781 202.164062 C 321.554688 202.378906 321.582031 202.609375 321.5 202.847656 C 321.332031 203.410156 320.988281 203.878906 320.554688 204.132812 C 320.117188 204.390625 319.648438 204.480469 319.226562 204.511719 C 318.382812 204.582031 317.582031 204.503906 317.21875 204.589844 C 317.167969 204.59375 317.117188 204.59375 317.066406 204.589844 C 305.265625 205.304688 293.496094 204.972656 281.769531 205.421875 C 281.636719 205.429688 281.507812 205.402344 281.390625 205.347656 C 280.367188 204.855469 279.984375 203.734375 280.101562 202.808594 C 280.203125 201.992188 280.605469 201.257812 281.238281 200.726562 L 300.0625 172.242188 C 300.191406 172.054688 300.367188 171.941406 300.59375 171.902344 Z M 327.824219 205.6875 L 327.902344 205.6875 C 340.644531 205.96875 353.402344 206.109375 366.15625 206.253906 C 366.296875 206.257812 366.429688 206.296875 366.550781 206.371094 C 366.675781 206.445312 366.769531 206.542969 366.839844 206.667969 C 366.910156 206.792969 366.945312 206.925781 366.945312 207.070312 C 366.945312 207.210938 366.90625 207.34375 366.835938 207.46875 C 361.199219 216.953125 355.125 226.148438 349.148438 235.382812 L 349.074219 235.34375 C 348.988281 235.734375 348.949219 236.152344 348.695312 236.40625 C 348.316406 236.773438 347.855469 237.003906 347.367188 237.085938 C 346.882812 237.171875 346.332031 237.140625 345.855469 236.898438 C 345.46875 236.699219 345.195312 236.292969 345.019531 235.835938 L 344.984375 235.835938 C 338.96875 226.835938 333.003906 217.804688 326.917969 208.871094 C 326.394531 208.460938 326.132812 207.84375 326.160156 207.242188 C 326.175781 206.863281 326.300781 206.472656 326.613281 206.140625 C 326.90625 205.832031 327.367188 205.703125 327.824219 205.726562 Z M 319.871094 205.761719 C 320.195312 205.742188 320.441406 205.867188 320.613281 206.140625 C 320.785156 206.417969 320.789062 206.695312 320.628906 206.976562 L 319.152344 209.550781 C 319.140625 209.550781 319.125 209.550781 319.113281 209.550781 C 313.570312 218.800781 307.425781 227.632812 301.917969 236.820312 C 301.800781 237.019531 301.628906 237.144531 301.40625 237.195312 C 301.183594 237.25 300.972656 237.210938 300.78125 237.085938 C 297.398438 234.75 296.511719 230.695312 294.378906 228.148438 C 294.355469 228.125 294.328125 228.097656 294.304688 228.070312 C 289.835938 221.332031 285.417969 214.589844 281.011719 207.808594 C 280.933594 207.691406 280.890625 207.566406 280.878906 207.425781 C 280.867188 207.285156 280.890625 207.152344 280.949219 207.027344 C 281.003906 206.898438 281.089844 206.792969 281.203125 206.710938 C 281.316406 206.628906 281.441406 206.578125 281.578125 206.558594 C 287.972656 205.628906 294.332031 206.441406 300.515625 206.105469 C 300.527344 206.105469 300.542969 206.105469 300.554688 206.105469 C 307.011719 206.023438 313.4375 205.988281 319.871094 205.761719 Z M 273.851562 206.253906 C 273.929688 206.246094 274.15625 206.25 274.078125 206.253906 C 274.296875 206.257812 274.484375 206.339844 274.636719 206.492188 C 274.792969 206.648438 274.871094 206.832031 274.875 207.050781 C 274.914062 208.914062 274.078125 210.40625 273.171875 211.710938 C 272.261719 213.015625 271.292969 214.160156 270.785156 215.382812 C 270.765625 215.4375 270.738281 215.488281 270.707031 215.535156 C 265.832031 222.8125 260.988281 230.128906 256.203125 237.464844 C 256.128906 237.574219 256.035156 237.664062 255.921875 237.726562 C 255.804688 237.792969 255.679688 237.824219 255.550781 237.828125 C 255.417969 237.832031 255.292969 237.804688 255.171875 237.75 C 255.054688 237.691406 254.957031 237.609375 254.875 237.503906 C 248.566406 229.375 243.449219 220.484375 237.679688 212.125 C 237.632812 212.058594 237.59375 211.980469 237.566406 211.898438 C 237.488281 211.617188 237.15625 211.257812 236.734375 210.761719 C 236.308594 210.265625 235.8125 209.492188 235.9375 208.527344 C 235.984375 208.207031 236.164062 207.992188 236.46875 207.882812 C 241.761719 205.980469 247.226562 207.40625 252.1875 206.9375 C 252.210938 206.9375 252.238281 206.9375 252.261719 206.9375 C 259.40625 206.785156 266.507812 206.664062 273.625 206.332031 C 273.695312 206.296875 273.773438 206.269531 273.851562 206.257812 Z M 6.183594 206.519531 L 6.675781 206.519531 L 44.589844 206.976562 C 44.730469 206.976562 44.863281 207.011719 44.984375 207.078125 C 45.105469 207.148438 45.203125 207.242188 45.277344 207.363281 C 45.351562 207.480469 45.390625 207.609375 45.394531 207.75 C 45.402344 207.890625 45.375 208.023438 45.308594 208.148438 C 39.765625 218.648438 32.777344 228.226562 26.902344 238.375 C 26.792969 238.546875 26.644531 238.660156 26.449219 238.71875 C 26.253906 238.777344 26.0625 238.761719 25.878906 238.675781 C 24.226562 237.878906 23.21875 236.507812 22.394531 235.15625 C 21.570312 233.800781 20.859375 232.457031 19.933594 231.480469 C 19.90625 231.445312 19.878906 231.40625 19.859375 231.367188 C 14.863281 223.882812 10.007812 216.320312 5.046875 208.832031 C 5.015625 208.773438 4.988281 208.707031 4.972656 208.640625 C 4.824219 208.210938 4.828125 207.757812 5.011719 207.355469 C 5.191406 206.949219 5.636719 206.578125 6.183594 206.519531 Z M 324.53125 208.226562 C 324.742188 208.167969 324.945312 208.195312 325.136719 208.300781 L 325.210938 208.339844 C 325.335938 208.402344 325.4375 208.488281 325.515625 208.605469 C 332.257812 218.554688 338.875 228.578125 345.550781 238.5625 C 345.632812 238.703125 345.671875 238.855469 345.664062 239.019531 C 345.660156 240.800781 344.859375 242.234375 343.996094 243.488281 C 343.136719 244.742188 342.230469 245.871094 341.761719 247.046875 C 341.742188 247.101562 341.71875 247.152344 341.6875 247.199219 L 325.96875 271.363281 C 325.867188 271.511719 325.734375 271.613281 325.566406 271.671875 C 325.402344 271.730469 325.234375 271.734375 325.0625 271.679688 C 324.894531 271.628906 324.757812 271.53125 324.652344 271.390625 C 324.546875 271.246094 324.492188 271.085938 324.492188 270.910156 C 324.367188 250.292969 324.167969 229.671875 323.886719 209.058594 C 323.882812 208.734375 324.019531 208.496094 324.300781 208.339844 L 324.378906 208.300781 C 324.425781 208.269531 324.476562 208.246094 324.53125 208.226562 Z M 279.304688 208.492188 C 279.480469 208.441406 279.648438 208.445312 279.816406 208.507812 C 279.984375 208.574219 280.117188 208.679688 280.214844 208.832031 L 281.65625 210.953125 L 299.570312 238.980469 C 299.777344 239.285156 299.777344 239.585938 299.570312 239.890625 C 293.011719 249.933594 286.535156 260.03125 279.835938 270 C 279.738281 270.148438 279.601562 270.25 279.433594 270.308594 C 279.269531 270.367188 279.101562 270.371094 278.929688 270.316406 C 278.761719 270.265625 278.625 270.167969 278.519531 270.027344 C 278.414062 269.882812 278.359375 269.722656 278.359375 269.546875 L 278.738281 209.285156 C 278.734375 209.105469 278.78125 208.941406 278.886719 208.792969 C 278.992188 208.644531 279.132812 208.542969 279.304688 208.492188 Z M 276.578125 208.640625 C 276.804688 208.601562 277.011719 208.648438 277.199219 208.78125 C 277.382812 208.914062 277.492188 209.097656 277.527344 209.324219 L 277.601562 209.855469 C 277.605469 209.890625 277.605469 209.929688 277.601562 209.96875 C 277.210938 229.460938 276.695312 248.964844 276.730469 268.449219 C 276.722656 268.796875 276.554688 269.039062 276.234375 269.175781 C 275.910156 269.308594 275.621094 269.253906 275.367188 269.015625 C 270.710938 264.347656 268.085938 258.351562 264.421875 253.335938 C 264.40625 253.3125 264.394531 253.285156 264.382812 253.257812 L 256.164062 240.382812 C 255.980469 240.089844 255.980469 239.800781 256.164062 239.511719 L 276.050781 208.984375 C 276.175781 208.792969 276.355469 208.679688 276.578125 208.640625 Z M 368.085938 208.640625 C 368.203125 208.621094 368.320312 208.628906 368.4375 208.660156 C 368.550781 208.6875 368.652344 208.742188 368.746094 208.820312 C 368.835938 208.898438 368.90625 208.988281 368.957031 209.097656 C 369.007812 209.203125 369.035156 209.320312 369.035156 209.4375 L 369.414062 239.925781 L 369.640625 270.949219 C 369.640625 271.125 369.585938 271.285156 369.480469 271.425781 C 369.375 271.570312 369.238281 271.667969 369.070312 271.71875 C 368.898438 271.769531 368.730469 271.769531 368.5625 271.710938 C 368.394531 271.652344 368.261719 271.546875 368.164062 271.402344 L 347.710938 240.191406 C 347.503906 239.890625 347.503906 239.585938 347.710938 239.285156 L 367.554688 208.984375 C 367.683594 208.792969 367.863281 208.679688 368.085938 208.640625 Z M 46.558594 208.871094 C 46.757812 208.824219 46.949219 208.847656 47.128906 208.945312 L 47.203125 208.984375 C 47.472656 209.132812 47.609375 209.359375 47.621094 209.664062 C 48.144531 224.441406 48.128906 239.226562 48.339844 253.980469 C 48.421875 258.296875 48.476562 262.613281 48.53125 266.933594 C 48.546875 266.832031 48.535156 266.730469 48.566406 266.628906 C 48.800781 255.085938 48.492188 243.523438 48.53125 231.9375 C 48.507812 225.015625 48.585938 218.089844 48.605469 211.179688 C 48.605469 210.960938 48.679688 210.769531 48.832031 210.613281 L 48.90625 210.535156 C 49.066406 210.382812 49.257812 210.308594 49.476562 210.308594 L 49.589844 210.308594 C 49.855469 210.304688 50.070312 210.40625 50.234375 210.613281 C 57.113281 219.878906 63.015625 229.78125 69.398438 239.285156 C 69.433594 239.355469 69.460938 239.429688 69.476562 239.511719 C 69.855469 240.75 69.425781 241.855469 68.90625 242.730469 C 68.386719 243.605469 67.796875 244.363281 67.542969 245.003906 C 67.519531 245.042969 67.496094 245.082031 67.46875 245.117188 C 62.476562 253.414062 56.738281 261.160156 51.710938 269.320312 C 51.636719 269.449219 51.535156 269.546875 51.40625 269.621094 C 50.914062 269.886719 50.320312 269.921875 49.855469 269.734375 C 49.390625 269.550781 49.0625 269.203125 48.832031 268.828125 C 48.671875 268.5625 48.605469 268.253906 48.53125 267.957031 C 48.535156 268.5625 48.558594 269.167969 48.566406 269.773438 C 48.570312 270.039062 48.46875 270.253906 48.265625 270.417969 C 47.820312 270.738281 47.269531 270.882812 46.785156 270.832031 C 46.304688 270.785156 45.882812 270.566406 45.539062 270.304688 C 45.394531 270.195312 45.28125 270.050781 45.160156 269.925781 C 45.792969 270.84375 46.410156 271.777344 47.050781 272.691406 C 47.148438 272.824219 47.199219 272.976562 47.203125 273.144531 C 47.191406 273.753906 46.992188 274.339844 46.636719 274.734375 C 46.277344 275.128906 45.804688 275.347656 45.347656 275.492188 C 44.476562 275.765625 43.574219 275.734375 42.847656 275.644531 L 42.734375 275.644531 C 35.625 275.695312 28.515625 275.902344 21.371094 275.832031 L 5.160156 275.945312 C 4.9375 275.941406 4.746094 275.859375 4.589844 275.695312 C 4.433594 275.535156 4.359375 275.339844 4.367188 275.113281 C 4.453125 273.011719 5.375 271.28125 6.410156 269.734375 C 7.449219 268.191406 8.605469 266.8125 9.328125 265.34375 C 9.335938 265.304688 9.351562 265.265625 9.367188 265.226562 L 24.441406 243.222656 C 24.535156 243.082031 24.660156 242.980469 24.820312 242.917969 L 25.007812 242.84375 C 25.105469 242.8125 25.207031 242.800781 25.3125 242.804688 L 25.5 242.804688 C 25.742188 242.804688 25.945312 242.890625 26.105469 243.070312 C 30.59375 248.355469 34.707031 253.96875 38.378906 259.851562 C 38.386719 259.859375 38.371094 259.878906 38.378906 259.886719 C 40.371094 262.90625 42.429688 265.882812 44.476562 268.863281 C 44.421875 268.738281 44.363281 268.617188 44.324219 268.484375 L 44.289062 268.449219 C 38.757812 259.652344 32.839844 251.089844 26.902344 242.539062 C 26.824219 242.414062 26.789062 242.273438 26.789062 242.125 C 26.679688 238.28125 29.359375 235.421875 30.917969 232.730469 C 34.164062 227.324219 37.71875 222.148438 41.066406 216.859375 C 41.066406 216.847656 41.066406 216.835938 41.066406 216.824219 C 42.730469 214.339844 44.304688 211.632812 46.105469 209.171875 C 46.222656 209.015625 46.371094 208.917969 46.558594 208.871094 Z M 321.726562 208.984375 C 321.90625 208.984375 322.144531 209.066406 322.296875 209.171875 C 322.457031 209.269531 322.570312 209.410156 322.636719 209.589844 C 323.074219 211.152344 322.585938 212.59375 322.75 213.640625 C 322.753906 213.679688 322.753906 213.71875 322.75 213.753906 C 323.046875 232.050781 323.078125 250.355469 323.355469 268.636719 C 323.359375 268.820312 323.3125 268.984375 323.207031 269.128906 C 323.101562 269.277344 322.960938 269.378906 322.789062 269.433594 C 322.207031 269.589844 321.582031 269.523438 321.121094 269.28125 C 320.660156 269.039062 320.351562 268.660156 320.097656 268.296875 C 319.589844 267.566406 319.261719 266.75 319 266.363281 C 313.28125 257.78125 307.582031 249.191406 301.917969 240.570312 C 301.738281 240.300781 301.726562 240.023438 301.878906 239.738281 C 307.339844 229.09375 314.460938 219.535156 320.703125 209.511719 C 320.773438 209.402344 320.859375 209.316406 320.96875 209.25 C 321.007812 209.222656 321.175781 208.980469 321.726562 208.984375 Z M 231.128906 209.210938 C 231.242188 209.191406 231.355469 209.195312 231.46875 209.222656 C 231.582031 209.253906 231.683594 209.304688 231.773438 209.375 C 231.863281 209.449219 231.933594 209.535156 231.988281 209.640625 C 232.039062 209.742188 232.070312 209.851562 232.074219 209.96875 L 232.1875 212.503906 C 232.191406 212.53125 232.191406 212.554688 232.1875 212.582031 L 230.863281 268.902344 C 230.855469 269.078125 230.796875 269.230469 230.6875 269.367188 C 230.578125 269.503906 230.441406 269.59375 230.273438 269.644531 C 230.105469 269.691406 229.941406 269.683594 229.777344 269.625 C 229.613281 269.566406 229.484375 269.464844 229.386719 269.320312 L 210.5625 241.253906 C 210.355469 240.949219 210.355469 240.648438 210.5625 240.34375 L 230.597656 209.550781 C 230.726562 209.363281 230.902344 209.25 231.128906 209.210938 Z M 233.816406 209.476562 C 233.988281 209.425781 234.160156 209.429688 234.328125 209.496094 C 234.496094 209.558594 234.628906 209.664062 234.726562 209.816406 L 237 213.226562 C 242.671875 221.375 247.617188 229.921875 252.984375 238.183594 L 252.945312 238.222656 C 253.332031 238.601562 253.613281 239.039062 253.703125 239.511719 C 253.804688 240.054688 253.746094 240.585938 253.589844 241.0625 C 253.289062 241.972656 252.683594 242.722656 252.148438 243.296875 L 252.1875 243.296875 L 234.460938 269.128906 C 234.363281 269.277344 234.226562 269.378906 234.058594 269.4375 C 233.894531 269.496094 233.726562 269.5 233.554688 269.445312 C 233.386719 269.394531 233.25 269.296875 233.144531 269.15625 C 233.039062 269.011719 232.984375 268.851562 232.984375 268.675781 L 233.25 210.269531 C 233.246094 210.089844 233.292969 209.925781 233.398438 209.777344 C 233.503906 209.628906 233.644531 209.527344 233.816406 209.476562 Z M 3.722656 209.703125 C 3.894531 209.652344 4.066406 209.660156 4.234375 209.722656 C 4.402344 209.785156 4.535156 209.890625 4.632812 210.042969 L 7.246094 213.792969 C 13.15625 222.363281 18.820312 231.070312 24.554688 239.738281 C 24.699219 239.964844 24.722656 240.207031 24.628906 240.457031 C 22.1875 247.414062 16.890625 252.558594 13.496094 258.523438 C 13.480469 258.539062 13.46875 258.550781 13.457031 258.5625 L 5.882812 269.734375 C 5.710938 269.996094 5.46875 270.121094 5.160156 270.101562 C 4.847656 270.085938 4.621094 269.9375 4.480469 269.660156 C 2.253906 265.589844 3.707031 261.097656 3.34375 257.351562 C 3.34375 257.324219 3.34375 257.300781 3.34375 257.273438 C 3.453125 241.6875 3.335938 226.089844 3.15625 210.496094 C 3.148438 210.316406 3.199219 210.152344 3.304688 210.003906 C 3.410156 209.855469 3.550781 209.757812 3.722656 209.703125 Z M 300.363281 241.554688 C 300.585938 241.476562 301.179688 241.65625 300.894531 241.59375 C 301.105469 241.640625 301.269531 241.753906 301.386719 241.933594 L 322.902344 274.621094 C 323.078125 274.890625 323.085938 275.167969 322.933594 275.449219 C 322.777344 275.730469 322.542969 275.871094 322.21875 275.871094 C 308.15625 275.757812 294.0625 275.6875 279.988281 275.265625 C 279.847656 275.253906 279.71875 275.210938 279.605469 275.136719 C 279.488281 275.0625 279.394531 274.960938 279.328125 274.839844 C 279.265625 274.714844 279.234375 274.582031 279.234375 274.445312 C 279.238281 274.304688 279.273438 274.175781 279.34375 274.054688 C 286.023438 263.265625 292.945312 252.65625 299.757812 241.972656 C 299.859375 241.808594 299.996094 241.695312 300.175781 241.632812 L 300.289062 241.59375 C 300.3125 241.582031 300.339844 241.566406 300.363281 241.554688 Z M 346.648438 241.859375 C 346.96875 241.847656 346.847656 241.863281 347.066406 241.859375 C 347.355469 241.851562 347.582031 241.964844 347.746094 242.199219 C 355.011719 252.773438 361.832031 263.601562 368.882812 274.28125 C 368.980469 274.425781 369.023438 274.585938 369.015625 274.761719 C 369.007812 274.933594 368.953125 275.089844 368.84375 275.226562 C 368.472656 275.71875 367.980469 276.035156 367.480469 276.175781 C 366.980469 276.3125 366.484375 276.292969 366.042969 276.25 C 365.160156 276.167969 364.378906 276.003906 363.921875 276.097656 C 363.871094 276.105469 363.820312 276.105469 363.769531 276.097656 C 351.074219 276.171875 338.394531 276.121094 325.703125 276.097656 C 325.5625 276.09375 325.429688 276.058594 325.308594 275.984375 C 325.183594 275.910156 325.089844 275.8125 325.019531 275.6875 C 324.949219 275.5625 324.914062 275.429688 324.914062 275.285156 C 324.914062 275.144531 324.953125 275.011719 325.023438 274.886719 C 331.902344 263.957031 338.757812 252.992188 346.003906 242.277344 C 346.101562 242.136719 346.226562 242.035156 346.382812 241.972656 L 346.574219 241.898438 C 346.597656 241.882812 346.625 241.871094 346.648438 241.859375 Z M 254.839844 241.933594 C 255.191406 241.863281 255.46875 241.976562 255.671875 242.277344 L 260.632812 249.925781 L 275.933594 273.789062 C 276.109375 274.058594 276.121094 274.335938 275.96875 274.617188 C 275.8125 274.898438 275.574219 275.039062 275.253906 275.039062 L 234.5 274.925781 C 234.175781 274.925781 233.941406 274.785156 233.785156 274.503906 C 233.632812 274.21875 233.640625 273.945312 233.816406 273.675781 L 254.308594 242.277344 C 254.4375 242.085938 254.613281 241.972656 254.839844 241.933594 Z M 70.496094 242.691406 C 70.710938 242.679688 70.902344 242.742188 71.066406 242.882812 C 73.390625 244.867188 74.636719 247.570312 76.292969 249.660156 C 76.292969 249.675781 76.292969 249.6875 76.292969 249.699219 C 81.828125 257.574219 87.328125 265.480469 92.730469 273.449219 C 92.855469 273.640625 92.890625 273.847656 92.839844 274.070312 C 92.789062 274.296875 92.664062 274.464844 92.464844 274.582031 C 90.570312 275.6875 88.507812 275.847656 86.554688 275.796875 C 84.605469 275.742188 82.703125 275.5 80.988281 275.683594 C 80.964844 275.683594 80.9375 275.683594 80.914062 275.683594 C 70.632812 275.714844 60.363281 275.726562 50.082031 275.71875 C 49.949219 275.714844 49.820312 275.683594 49.703125 275.613281 C 49.585938 275.546875 49.492188 275.457031 49.417969 275.34375 C 49.347656 275.230469 49.304688 275.105469 49.296875 274.972656 C 49.285156 274.835938 49.308594 274.707031 49.363281 274.582031 C 54.644531 263.75 62.082031 254.300781 68.566406 244.398438 C 68.609375 244.339844 68.660156 244.289062 68.71875 244.246094 C 68.742188 244.21875 68.90625 243.953125 69.132812 243.601562 C 69.359375 243.25 69.792969 242.726562 70.496094 242.691406 Z M 208.933594 243.148438 C 209.105469 243.097656 209.277344 243.101562 209.445312 243.164062 C 209.613281 243.230469 209.746094 243.335938 209.84375 243.488281 L 229.765625 273.789062 C 229.941406 274.058594 229.949219 274.335938 229.796875 274.617188 C 229.640625 274.898438 229.40625 275.039062 229.082031 275.039062 L 188.367188 275.039062 C 188.042969 275.039062 187.808594 274.898438 187.652344 274.617188 C 187.5 274.335938 187.507812 274.058594 187.683594 273.789062 L 208.480469 243.488281 C 208.585938 243.316406 208.738281 243.203125 208.933594 243.148438 Z M 53.453125 275.871094 L 53.492188 275.871094 C 65.421875 276.058594 77.371094 275.960938 89.320312 276.023438 C 89.503906 276.019531 89.667969 276.070312 89.8125 276.175781 C 90.304688 276.542969 90.617188 277.054688 90.722656 277.574219 C 90.828125 278.097656 90.753906 278.601562 90.609375 279.054688 C 90.320312 279.957031 89.742188 280.710938 89.359375 281.25 L 89.398438 281.25 L 72.503906 307.496094 C 72.339844 307.734375 72.109375 307.847656 71.824219 307.839844 C 70.300781 307.816406 69.265625 306.828125 68.640625 305.832031 C 68.015625 304.832031 67.585938 303.785156 67.089844 303.179688 C 67.085938 303.15625 67.085938 303.128906 67.089844 303.105469 C 61.328125 295 56.136719 286.550781 50.652344 278.332031 C 50.550781 278.171875 50.511719 277.992188 50.535156 277.804688 C 50.621094 276.996094 51.199219 276.394531 51.785156 276.136719 C 52.359375 275.882812 52.945312 275.847656 53.453125 275.871094 Z M 43.984375 276.0625 C 44.117188 276.054688 44.242188 276.082031 44.363281 276.136719 C 44.828125 276.402344 45.144531 276.875 45.234375 277.347656 C 45.324219 277.824219 45.226562 278.242188 45.082031 278.597656 C 44.789062 279.3125 44.296875 279.90625 44.097656 280.226562 C 41.578125 284.328125 39.207031 288.546875 36.445312 292.574219 C 36.441406 292.582031 36.453125 292.605469 36.445312 292.613281 C 33.34375 297.527344 30.0625 302.328125 27.089844 307.269531 C 27.03125 307.363281 26.957031 307.4375 26.863281 307.496094 C 25.996094 308.125 24.90625 307.945312 24.214844 307.460938 C 23.574219 307.011719 23.167969 306.386719 22.886719 305.753906 L 22.851562 305.753906 C 22.816406 305.707031 22.804688 305.652344 22.773438 305.605469 C 19.214844 300.324219 16.195312 294.78125 12.546875 289.695312 C 12.535156 289.695312 12.523438 289.695312 12.507812 289.695312 L 4.933594 278.21875 C 4.761719 277.957031 4.75 277.6875 4.894531 277.40625 C 5.035156 277.128906 5.265625 276.984375 5.578125 276.96875 C 17.171875 276.300781 28.730469 276.46875 40.273438 276.175781 C 40.285156 276.175781 40.296875 276.175781 40.308594 276.175781 C 41.453125 276.160156 42.679688 275.992188 43.984375 276.0625 Z M 97.882812 276.289062 L 97.996094 276.289062 L 136.589844 277.046875 C 136.90625 277.039062 137.144531 277.171875 137.304688 277.441406 C 137.464844 277.710938 137.46875 277.984375 137.308594 278.257812 C 131.566406 288.351562 124.980469 297.882812 118.523438 307.460938 C 118.433594 307.578125 118.320312 307.667969 118.183594 307.726562 C 117.6875 307.960938 117.117188 307.996094 116.667969 307.800781 C 116.21875 307.605469 115.941406 307.289062 115.722656 306.96875 C 115.277344 306.328125 114.980469 305.59375 114.8125 305.339844 L 96.441406 278.296875 C 96.378906 278.191406 96.339844 278.078125 96.328125 277.953125 C 96.257812 277.429688 96.496094 277.03125 96.78125 276.742188 C 97.042969 276.480469 97.425781 276.308594 97.882812 276.324219 Z M 273.890625 276.703125 C 274.03125 276.707031 274.164062 276.746094 274.289062 276.820312 C 274.410156 276.894531 274.503906 276.992188 274.574219 277.117188 C 274.644531 277.242188 274.679688 277.375 274.679688 277.515625 C 274.679688 277.660156 274.644531 277.792969 274.570312 277.917969 L 272.449219 281.515625 L 255.859375 307.535156 C 255.789062 307.652344 255.695312 307.75 255.574219 307.816406 C 255.457031 307.886719 255.328125 307.925781 255.191406 307.929688 C 255.050781 307.933594 254.921875 307.902344 254.796875 307.839844 C 254.675781 307.777344 254.574219 307.6875 254.496094 307.574219 C 248.171875 298.054688 241.941406 288.492188 235.785156 278.863281 C 235.710938 278.75 235.664062 278.625 235.652344 278.488281 C 235.640625 278.351562 235.660156 278.222656 235.710938 278.09375 C 235.765625 277.96875 235.847656 277.863281 235.953125 277.777344 C 236.0625 277.691406 236.183594 277.636719 236.316406 277.613281 C 243.566406 276.105469 250.761719 277.566406 257.71875 277.046875 C 257.742188 277.042969 257.765625 277.042969 257.792969 277.046875 Z M 287.03125 276.894531 C 288.945312 276.886719 290.84375 276.910156 292.753906 276.933594 C 302.046875 277.023438 311.34375 277.164062 320.628906 277.195312 C 320.949219 277.195312 321.1875 277.335938 321.34375 277.617188 C 321.496094 277.902344 321.484375 278.175781 321.308594 278.445312 C 314.726562 288.414062 308.183594 298.417969 301.691406 308.445312 C 301.617188 308.5625 301.519531 308.652344 301.398438 308.71875 C 301.277344 308.785156 301.148438 308.816406 301.007812 308.816406 C 300.871094 308.816406 300.742188 308.785156 300.621094 308.71875 C 300.5 308.652344 300.402344 308.5625 300.328125 308.445312 L 280.632812 278.21875 C 280.457031 277.949219 280.445312 277.675781 280.601562 277.390625 C 280.753906 277.109375 280.992188 276.96875 281.3125 276.96875 C 283.222656 276.933594 285.117188 276.902344 287.03125 276.894531 Z M 181.585938 276.96875 C 181.8125 276.964844 182.007812 277.039062 182.167969 277.195312 C 182.332031 277.347656 182.417969 277.539062 182.421875 277.765625 L 182.421875 277.953125 C 182.421875 278.105469 182.382812 278.242188 182.304688 278.371094 C 176.777344 287.382812 170.800781 296.074219 165.222656 304.996094 L 165.1875 304.960938 C 165.128906 305.363281 165.09375 305.789062 164.847656 306.058594 C 164.488281 306.449219 164.039062 306.675781 163.558594 306.777344 C 163.078125 306.878906 162.566406 306.863281 162.082031 306.625 C 161.691406 306.4375 161.386719 306.023438 161.210938 305.566406 L 161.171875 305.566406 C 155.507812 296.773438 149.671875 288.066406 143.863281 279.355469 C 143.730469 279.160156 143.691406 278.945312 143.75 278.710938 C 143.898438 278.148438 144.269531 277.660156 144.695312 277.386719 C 145.121094 277.113281 145.558594 277.03125 145.984375 277.007812 C 146.832031 276.957031 147.628906 277.132812 148.066406 277.121094 C 148.09375 277.121094 148.117188 277.121094 148.144531 277.121094 C 159.292969 277.410156 170.421875 277.257812 181.585938 276.96875 Z M 189.503906 277.007812 C 189.566406 277 189.628906 277 189.691406 277.007812 L 227.605469 277.046875 C 227.925781 277.042969 228.164062 277.183594 228.320312 277.46875 C 228.472656 277.75 228.460938 278.027344 228.289062 278.296875 L 209.464844 307.347656 C 209.390625 307.460938 209.292969 307.554688 209.171875 307.621094 C 209.050781 307.6875 208.917969 307.71875 208.78125 307.71875 C 208.644531 307.71875 208.515625 307.6875 208.394531 307.621094 C 208.273438 307.554688 208.175781 307.460938 208.101562 307.347656 L 189.011719 278.257812 C 188.933594 278.148438 188.886719 278.023438 188.871094 277.890625 C 188.855469 277.757812 188.875 277.628906 188.921875 277.5 C 188.972656 277.375 189.050781 277.269531 189.152344 277.183594 C 189.253906 277.09375 189.371094 277.035156 189.503906 277.007812 Z M 189.503906 277.007812 " fill-opacity="1" fill-rule="nonzero"/><path fill="#ffffff" d="M 278.703125 77.023438 C 277.359375 79.054688 278.101562 81.597656 277.785156 83.867188 C 277.160156 106.613281 276.671875 129.359375 276.238281 152.109375 C 276.097656 167.933594 276.019531 183.757812 276.203125 199.582031 C 276.476562 236.632812 276.921875 273.675781 277.25 310.722656 C 276.726562 312.453125 278.105469 312.113281 279.34375 312.195312 C 280.855469 312.257812 280.277344 310.246094 280.480469 309.292969 C 280.707031 303.050781 280.625 296.800781 280.75 290.554688 C 280.984375 270.402344 280.976562 250.25 280.953125 230.09375 C 281.050781 201.523438 281.445312 172.949219 281.183594 144.375 C 281.078125 122.226562 280.644531 100.082031 280.484375 77.933594 C 280.285156 77.203125 279.40625 76.769531 278.703125 77.023438 Z M 325.671875 79.828125 C 324.472656 79.585938 323.097656 80.1875 323.398438 81.640625 C 323.570312 86.542969 323.425781 91.460938 323.472656 96.371094 C 323.503906 107.445312 323.363281 118.519531 323.023438 129.589844 C 322.78125 137.203125 322.765625 144.824219 323.054688 152.4375 C 323.613281 171.410156 324.007812 190.386719 323.800781 209.367188 C 323.617188 243.632812 323.296875 277.894531 322.980469 312.15625 L 327.679688 312.15625 C 327.878906 286.703125 327.058594 261.261719 327.179688 235.808594 C 327.136719 193.894531 327.082031 151.976562 326.953125 110.0625 C 326.867188 99.964844 326.464844 89.878906 326.125 79.789062 Z M 370.136719 117.738281 C 368.707031 117.886719 368.628906 119.65625 368.699219 120.769531 C 368.28125 142.003906 367.617188 163.238281 368.054688 184.476562 C 368.230469 202.3125 367.734375 220.152344 368.167969 237.988281 C 368.398438 261.609375 368.046875 285.234375 367.980469 308.855469 C 368.320312 309.921875 367.210938 312.453125 368.902344 312.15625 C 369.933594 311.820312 372.367188 312.894531 372.335938 311.492188 C 372.476562 293.375 371.855469 275.265625 371.832031 257.152344 C 371.757812 245.199219 372.046875 233.246094 372.566406 221.304688 C 372.820312 206.996094 372.195312 192.691406 372.296875 178.386719 C 372.332031 163.121094 372.214844 147.859375 372.007812 132.597656 C 371.976562 128.199219 371.949219 123.804688 371.917969 119.40625 C 372.589844 118.320312 371.023438 117.550781 370.136719 117.738281 Z M 230.753906 128.421875 C 229.253906 135.320312 230.339844 142.4375 229.417969 149.398438 C 228.199219 169.660156 228.671875 189.964844 228.722656 210.25 C 228.941406 244.21875 229.078125 278.1875 229.164062 312.15625 L 233.519531 312.15625 C 233.90625 296.929688 233.835938 281.699219 233.679688 266.46875 C 233.527344 247.957031 233.414062 229.441406 233.699219 210.933594 C 233.855469 195.5625 233.988281 180.183594 233.582031 164.816406 C 233.375 153.554688 232.914062 142.300781 232.382812 131.050781 C 232.410156 130.035156 232.144531 128.214844 230.753906 128.421875 Z M 0.507812 159.707031 C 0.195312 189.699219 -0.0429688 219.691406 0.015625 249.6875 C 0.03125 270.507812 0.0664062 291.332031 0.0507812 312.15625 C 0.996094 312.085938 2.222656 312.503906 2.929688 311.699219 C 3.144531 310.363281 2.945312 308.949219 3.027344 307.582031 C 3.234375 269.660156 3.144531 231.738281 3.144531 193.816406 C 3.136719 182.445312 3.128906 171.074219 3.121094 159.707031 C 2.253906 159.835938 1.375 159.574219 0.507812 159.707031 Z M 47.285156 181.257812 C 45.867188 181.238281 45.253906 182.996094 45.542969 184.171875 C 45.875 218.5625 45.882812 252.957031 45.804688 287.347656 L 45.804688 312.15625 C 46.78125 311.835938 48.09375 312.699219 48.835938 311.777344 C 49.175781 309.277344 49.015625 306.699219 49.0625 304.167969 C 49.207031 264.699219 49.175781 225.230469 49.441406 185.765625 C 49.191406 184.378906 50.050781 182.574219 48.722656 181.558594 C 48.300781 181.269531 47.785156 181.160156 47.285156 181.257812 Z M 186.253906 227.464844 C 184.960938 236.738281 185.640625 246.125 185.304688 255.449219 C 185.175781 274.351562 185.433594 293.253906 185.382812 312.15625 C 186.457031 311.8125 187.816406 312.742188 188.679688 311.738281 C 188.847656 287.285156 188.617188 262.832031 188.703125 238.378906 C 188.734375 235.070312 188.738281 231.761719 188.757812 228.460938 C 188.90625 227.183594 187.09375 227.503906 186.253906 227.464844 Z M 92.8125 239.964844 C 91.039062 240.285156 90.601562 242.460938 90.808594 243.980469 C 90.621094 266.199219 90.570312 288.417969 90.65625 310.640625 C 90.140625 312.027344 92.058594 312.472656 93.078125 312.304688 C 94.304688 312.507812 95.617188 311.613281 95.226562 310.277344 C 94.945312 295.972656 95.050781 281.664062 94.90625 267.355469 C 94.871094 258.972656 94.769531 250.585938 94.652344 242.203125 C 94.695312 241.175781 94.089844 239.695312 92.8125 239.964844 Z M 140.046875 259.28125 C 138.601562 261.078125 139.425781 263.503906 139.171875 265.601562 C 139.003906 281.121094 138.394531 296.636719 138.039062 312.15625 L 144.136719 312.15625 C 144.046875 296.917969 142.976562 281.695312 143.347656 266.457031 L 143.417969 260.304688 C 142.847656 258.992188 141.191406 259.25 140.046875 259.28125 Z M 140.046875 259.28125 " fill-opacity="1" fill-rule="nonzero"/><path fill="#ffffff" d="M 295.746094 62.066406 C 294.839844 62.050781 293.925781 62.070312 293.019531 62.105469 C 280.6875 63.09375 268.714844 68.066406 259.347656 76.15625 C 250.9375 83.355469 244.34375 92.410156 238.589844 101.800781 C 230.03125 116.015625 223.394531 131.265625 216.699219 146.417969 C 209.835938 162.066406 203.058594 177.773438 195.453125 193.082031 C 192 199.914062 188.300781 206.625 183.824219 212.851562 C 179.050781 219.675781 173.445312 225.90625 167.308594 231.523438 C 162.347656 235.960938 156.65625 239.648438 150.378906 241.9375 C 143.3125 244.640625 135.617188 245.855469 128.070312 245.082031 C 119.871094 244.144531 112.109375 240.441406 105.875 235.082031 C 96.808594 227.671875 89.492188 218.453125 82.242188 209.328125 C 73.890625 198.886719 65.914062 187.996094 55.996094 178.953125 C 50.167969 173.78125 43.78125 169.21875 36.90625 165.546875 C 31.859375 162.835938 26.621094 160.5 21.1875 158.691406 C 15.378906 156.867188 9.375 155.699219 3.382812 154.710938 C 2.117188 154.511719 1.363281 156.222656 2.398438 156.984375 C 3.722656 157.421875 5.140625 157.484375 6.488281 157.855469 C 13.328125 159.296875 20.109375 161.308594 26.300781 164.597656 C 30.878906 167.042969 35.339844 169.753906 39.480469 172.894531 C 45.492188 177.308594 50.980469 182.410156 56.183594 187.742188 C 61.644531 193.421875 66.589844 199.597656 71.183594 205.996094 C 79.386719 217.152344 86.773438 228.925781 95.914062 239.363281 C 101.898438 246.019531 109.054688 251.851562 117.464844 255.121094 C 124.199219 257.894531 131.605469 258.820312 138.828125 258.035156 C 148.21875 257.105469 157.292969 253.53125 164.921875 248 C 173.351562 241.996094 180.09375 233.917969 185.679688 225.273438 C 192.777344 214.195312 198.3125 202.238281 203.898438 190.355469 C 212.324219 171.96875 220.039062 153.261719 228.441406 134.867188 C 233.351562 124.363281 238.421875 113.859375 244.917969 104.226562 C 249.257812 97.792969 254.125 91.691406 259.726562 86.308594 C 267.773438 78.570312 278.152344 72.953125 289.347656 71.726562 C 298.75 70.59375 308.328125 72.59375 316.996094 76.234375 C 326.289062 80.148438 334.933594 85.421875 343.015625 91.421875 C 353.449219 99.148438 363.1875 107.828125 371.914062 117.445312 C 372.945312 118.542969 373.949219 119.6875 374.945312 120.816406 L 374.945312 113.582031 C 374.351562 112.863281 373.761719 112.136719 373.164062 111.421875 C 368.050781 105.347656 362.820312 99.367188 357.179688 93.773438 C 349.335938 85.914062 340.800781 78.691406 331.199219 73.054688 C 322.792969 68.078125 313.601562 64.210938 303.890625 62.789062 C 301.199219 62.378906 298.46875 62.117188 295.746094 62.070312 Z M 295.746094 62.066406 " fill-opacity="1" fill-rule="nonzero"/><path fill="#ffffff" d="M 212.742188 121.136719 C 207.738281 121.480469 198.414062 125.769531 197.109375 127.113281 C 196.761719 127.472656 196.695312 127.910156 196.785156 128.355469 C 196.722656 128.441406 196.085938 129.363281 196.050781 129.964844 C 195.964844 131.429688 197.0625 132.765625 196.96875 134.242188 C 196.867188 135.882812 195.359375 138.976562 195.359375 138.976562 L 191.820312 139.894531 L 190.808594 139.527344 C 191.25 139.015625 191.269531 138.980469 191.589844 138.148438 C 191.835938 137.519531 190.257812 136.722656 190.257812 136.722656 C 190.257812 136.722656 190.332031 136.035156 189.890625 136.125 L 188.738281 136.355469 C 188.164062 136.199219 187.84375 135.710938 186.945312 135.941406 C 186.945312 135.941406 186.515625 135.449219 186.164062 135.296875 C 184.550781 134.605469 184.4375 136.667969 183.679688 136.585938 C 184.101562 136.789062 184.429688 136.808594 184.648438 136.722656 C 184.183594 137.210938 183.484375 137.933594 183.175781 138.609375 C 181.921875 141.351562 183.375 142.691406 182.992188 145.136719 C 183.472656 144.867188 183.695312 144.460938 183.820312 144.082031 C 183.644531 145.925781 184.519531 144.996094 184.738281 146.289062 C 185.441406 144.429688 184.472656 145.519531 186.210938 143.988281 C 185.558594 144.839844 186.246094 146.15625 185.289062 146.65625 C 186.820312 146.445312 187.507812 144.480469 188.464844 143.113281 C 188.964844 142.398438 188.328125 143.019531 188.785156 142.058594 C 189.242188 141.09375 190.808594 141.6875 190.808594 141.6875 C 190.808594 141.6875 191.128906 143.199219 191.683594 143.667969 C 192.269531 144.160156 193.890625 144.21875 193.890625 144.21875 L 195.039062 144.722656 C 193.347656 144.859375 191.765625 145.164062 191.222656 145.507812 C 190.460938 145.988281 189.960938 146.367188 189.566406 146.746094 C 189.351562 146.726562 188.890625 146.71875 188.785156 146.703125 C 187.910156 146.574219 186.128906 150.117188 187.40625 150.519531 L 195.316406 153 C 194.949219 153.3125 194.554688 153.941406 194.488281 154.058594 C 194.398438 154.214844 192.324219 159.988281 192.324219 159.988281 L 191.867188 159.484375 L 190.992188 159.851562 L 186.761719 159.484375 L 187.175781 158.839844 L 186.300781 158.242188 C 186.300781 158.242188 187.09375 153.285156 186.992188 152.632812 C 186.78125 151.285156 184.324219 148.585938 184.324219 148.585938 C 184.640625 147.941406 184.222656 147.269531 183.957031 146.886719 C 183.738281 146.566406 183.589844 146.363281 183.542969 146.5625 C 183.421875 147.078125 183.804688 147.648438 183.496094 147.714844 C 183.496094 147.714844 183.390625 148.035156 182.855469 147.574219 C 182.59375 147.351562 182.714844 146.242188 182.714844 146.242188 C 182.628906 146.113281 182.589844 145.835938 182.347656 146.195312 L 182.257812 147.390625 C 182.257812 147.390625 182.03125 147.175781 181.980469 146.839844 C 181.910156 146.363281 182.042969 145.703125 181.75 145.917969 C 181.375 146.195312 181.863281 147.273438 181.886719 147.484375 C 181.914062 147.695312 181.109375 147.046875 181.015625 146.703125 C 180.917969 146.359375 180.742188 146.582031 180.832031 147.023438 C 180.917969 147.464844 183.011719 148.902344 183.820312 149.136719 C 184.375 149.300781 185.601562 151.214844 185.890625 152.542969 C 186.152344 153.757812 185.476562 156.359375 185.476562 156.359375 C 185.207031 153.949219 185.121094 151.464844 182.53125 150.519531 C 182.574219 150.191406 181.867188 149.714844 181.472656 149.691406 C 180.636719 149.640625 180.003906 148.816406 180.003906 148.816406 C 179.898438 148.070312 179.339844 147.65625 179.496094 148.585938 C 179.691406 148.925781 179.863281 149.367188 179.863281 149.367188 C 179.863281 149.367188 179.039062 148.390625 178.898438 148.128906 C 178.761719 147.863281 178.445312 147.949219 178.484375 148.21875 C 178.527344 148.488281 179.359375 149.691406 179.359375 149.691406 C 179.359375 149.691406 178.546875 149.210938 178.300781 149.046875 C 178.058594 148.882812 177.882812 148.71875 177.84375 149.046875 C 177.800781 149.375 179.023438 149.984375 179.359375 150.242188 C 179.695312 150.5 182.074219 150.96875 183.3125 151.757812 C 184.554688 152.550781 184.527344 157.035156 184.417969 157.230469 C 184.304688 157.425781 183.910156 157.09375 183.910156 157.09375 L 183.40625 157.875 L 182.945312 157.875 L 182.625 158.980469 L 181.75 159.253906 L 180.09375 158.519531 C 180.09375 158.519531 181.175781 156.820312 181.335938 156.449219 C 181.496094 156.078125 180.003906 155.390625 180.003906 155.390625 C 180.003906 155.390625 179.941406 154.832031 179.773438 154.703125 C 179.605469 154.574219 178.738281 154.839844 178.300781 154.933594 C 177.863281 155.023438 178.273438 154.472656 176.738281 154.289062 C 176.289062 154.234375 175.632812 154.472656 175.632812 154.472656 C 175.632812 154.472656 174.800781 154.503906 174.394531 154.65625 C 173.789062 154.886719 172.738281 155.714844 172.738281 155.714844 L 172.96875 155.851562 L 172.460938 156.542969 L 172.785156 156.679688 C 172.515625 157.339844 171.949219 157.988281 172.046875 158.703125 L 172.738281 158.566406 C 172.292969 159.796875 172.636719 159.703125 172.644531 159.992188 C 172.828125 159.734375 172.796875 159.167969 173.242188 159.347656 C 173.058594 160.121094 173.160156 160.804688 173.425781 161.460938 C 173.8125 160.75 174.152344 160.507812 174.484375 160.449219 L 174.394531 161.046875 L 174.945312 160.589844 C 174.824219 161.167969 174.914062 161.367188 174.992188 161.601562 C 175.179688 161.15625 175.339844 160.578125 176.046875 160.449219 L 175.863281 161.09375 C 176.15625 161.328125 177.953125 159.78125 178.253906 159.898438 C 178.648438 160.050781 180.09375 161.507812 180.09375 161.507812 C 180.09375 161.507812 180.722656 162.367188 181.152344 162.65625 C 182.167969 163.339844 183.863281 163.992188 185.382812 164.496094 C 183.910156 164.648438 182.558594 164.878906 182.070312 165.1875 C 181.375 165.628906 180.894531 166.023438 180.507812 166.382812 C 179.707031 166.355469 179.128906 166.289062 179.128906 166.289062 L 177.75 171.253906 C 177.304688 172.867188 190.15625 175.625 195.683594 176.453125 C 196.628906 176.59375 197.890625 175.726562 198.257812 174.933594 L 198.535156 174.289062 C 198.828125 174.601562 199.199219 174.859375 199.636719 175.027344 C 201.292969 175.65625 203.238281 174.835938 204.003906 173.1875 C 204.773438 171.535156 204.097656 169.679688 202.441406 169.046875 C 202.015625 168.886719 201.550781 168.796875 201.109375 168.820312 L 202.121094 166.65625 C 202.335938 166.816406 202.589844 166.96875 202.855469 167.070312 C 204.511719 167.703125 206.457031 166.882812 207.222656 165.230469 C 207.992188 163.582031 207.269531 161.722656 205.613281 161.09375 C 205.347656 160.992188 205.0625 160.9375 204.785156 160.910156 C 208.324219 153.308594 211.242188 147.035156 214.855469 139.160156 C 215.128906 139.410156 215.453125 139.617188 215.824219 139.757812 C 217.476562 140.390625 219.46875 139.523438 220.238281 137.871094 C 221.003906 136.222656 220.28125 134.410156 218.628906 133.78125 C 218.242188 133.632812 217.832031 133.546875 217.433594 133.550781 L 217.9375 132.445312 C 218.265625 132.992188 218.753906 133.4375 219.410156 133.6875 C 221.0625 134.320312 223.011719 133.5 223.777344 131.847656 C 224.542969 130.199219 223.824219 128.339844 222.167969 127.710938 C 221.457031 127.441406 220.710938 127.449219 220.007812 127.664062 C 220.03125 127.601562 220.128906 127.339844 220.144531 127.296875 C 221.066406 124.648438 215.695312 121.230469 213.707031 121.136719 C 213.417969 121.121094 213.074219 121.113281 212.742188 121.136719 Z M 196.832031 128.492188 C 196.941406 128.882812 197.140625 129.296875 197.429688 129.6875 L 196.832031 129.503906 Z M 197.707031 130.011719 C 198.363281 130.804688 199.222656 131.488281 199.683594 131.894531 C 200.355469 132.488281 203.144531 133.65625 205.613281 134.609375 C 204.902344 134.851562 204.132812 135.035156 203.867188 135.160156 C 202.984375 134.773438 203.496094 134.703125 202.855469 135.113281 C 202.148438 135.570312 201.707031 141.597656 201.707031 141.597656 L 197.796875 140.355469 L 198.210938 139.621094 L 197.109375 139.070312 L 198.257812 134.652344 L 197.292969 131.710938 Z M 207.730469 135.894531 C 208.074219 135.871094 208.292969 135.984375 208.464844 136.125 L 209.015625 135.941406 C 209.738281 136.285156 209.9375 136.984375 209.660156 137.917969 C 208.921875 137.582031 208.117188 137.359375 207.5 137.503906 C 207.472656 137.511719 207.4375 137.496094 207.40625 137.503906 L 206.167969 136.449219 C 206.910156 136.070312 207.386719 135.921875 207.730469 135.894531 Z M 196.878906 154.242188 C 196.878906 154.242188 198.519531 154.375 199.867188 154.472656 C 200.714844 154.828125 200.382812 155.894531 199.40625 157.230469 C 199.023438 157.140625 198.667969 157.109375 198.351562 157.183594 C 197.222656 157.449219 196.441406 158.464844 195.867188 159.667969 C 196.273438 157.296875 196.878906 154.242188 196.878906 154.242188 Z M 196.878906 154.242188 " fill-opacity="1" fill-rule="nonzero"/><path fill="#ffffff" d="M 243.136719 67.527344 C 237.921875 67.671875 229.3125 70.453125 227.949219 71.546875 C 227.65625 71.785156 227.535156 72.085938 227.496094 72.40625 C 227.347656 72.769531 227.128906 73.164062 227.128906 73.164062 C 227.128906 73.164062 227.371094 71.894531 227.492188 71.621094 C 227.617188 71.347656 227.339844 71.167969 227.15625 71.367188 C 226.96875 71.566406 226.5625 72.96875 226.5625 72.96875 C 226.5625 72.96875 226.371094 72.035156 226.347656 71.738281 C 226.328125 71.445312 226.378906 71.214844 226.097656 71.386719 C 225.8125 71.558594 226.164062 72.847656 226.167969 73.269531 C 226.167969 73.441406 226.34375 73.957031 226.566406 74.535156 C 226.570312 74.554688 226.566406 74.609375 226.574219 74.628906 C 226.605469 74.84375 226.566406 74.980469 226.410156 75.007812 C 226.410156 75.007812 226.363281 75.292969 225.847656 74.8125 C 225.597656 74.578125 225.761719 73.433594 225.761719 73.433594 C 225.683594 73.300781 225.652344 73.105469 225.394531 73.457031 L 225.234375 74.617188 C 225.234375 74.617188 225.007812 74.375 224.96875 74.035156 C 224.917969 73.558594 225.121094 72.871094 224.820312 73.078125 C 224.433594 73.339844 224.859375 74.519531 224.875 74.730469 C 224.890625 74.945312 224.121094 74.253906 224.039062 73.910156 C 223.960938 73.5625 223.753906 73.707031 223.824219 74.152344 C 223.894531 74.59375 225.933594 76.144531 226.730469 76.414062 C 227.050781 76.523438 227.058594 77.636719 226.921875 78.796875 C 226.863281 78.808594 226.828125 78.851562 226.785156 78.851562 C 225.96875 78.839844 226.046875 79.542969 226.046875 79.542969 C 224.914062 81.191406 223.859375 82.890625 221.683594 84.28125 L 220.632812 85.175781 C 220.433594 84.9375 220.371094 85.085938 219.355469 85.34375 L 219.09375 84.855469 C 219.09375 84.855469 219.984375 84.527344 220.585938 82.917969 C 220.660156 82.722656 219.808594 81.628906 219.230469 81.851562 C 219.128906 81.472656 219.027344 81.464844 218.835938 81.414062 C 218.53125 81.339844 218.386719 81.628906 218.386719 81.628906 C 218.386719 81.628906 218.214844 81.425781 218.445312 81.070312 C 218.5625 80.894531 217.316406 80.957031 216.878906 81.027344 C 216.4375 81.101562 216.703125 80.601562 215.175781 80.351562 C 214.730469 80.277344 214.082031 80.511719 214.082031 80.511719 C 214.082031 80.511719 213.214844 80.546875 212.800781 80.679688 C 210.773438 81.753906 210.28125 83.371094 210.65625 84.730469 C 211.277344 86.992188 214.308594 88.609375 216.449219 86.078125 C 216.839844 86.246094 218.257812 87.761719 218.257812 87.761719 C 218.257812 87.761719 218.789062 88.640625 219.207031 88.949219 C 219.328125 89.039062 219.496094 89.109375 219.636719 89.199219 C 218.957031 89.53125 218.472656 89.832031 218.082031 90.121094 C 217.84375 90.070312 217.355469 89.976562 217.242188 89.945312 C 216.675781 89.789062 215.53125 91.203125 215.175781 92.328125 L 215.296875 91.261719 C 215.296875 91.261719 214.4375 92.222656 214.332031 92.839844 C 214.09375 94.289062 215.082031 95.730469 214.832031 97.1875 C 214.550781 98.808594 212.667969 101.742188 212.667969 101.742188 L 209.0625 102.242188 L 207.628906 102.191406 C 208.125 101.726562 208.636719 101.285156 209.046875 100.492188 C 209.355469 99.890625 207.890625 98.949219 207.890625 98.949219 C 207.890625 98.949219 208.023438 98.234375 207.574219 98.277344 L 206.382812 98.398438 C 205.828125 98.179688 205.5625 97.679688 204.640625 97.8125 C 204.640625 97.8125 204.234375 97.328125 203.953125 97.074219 C 203.667969 96.816406 201.03125 98.265625 201.03125 98.265625 L 202.804688 97.878906 C 202.804688 97.878906 201.132812 99.175781 200.589844 100.089844 C 199.050781 102.679688 199.363281 106.246094 198.71875 108.636719 C 199.394531 107.898438 199.804688 107.554688 199.804688 107.554688 C 198.480469 109.769531 198.671875 111.199219 198.25 112.949219 C 198.25 112.949219 199.382812 110.292969 199.585938 109.964844 C 200.167969 109.015625 201.753906 107.804688 201.753906 107.804688 C 201.894531 108.277344 201.3125 109.40625 200.855469 110.394531 C 200.855469 110.394531 202.191406 108.859375 202.652344 108.117188 C 203.109375 107.375 204.332031 105.019531 204.890625 104.109375 C 205.238281 103.546875 206.164062 103.785156 206.457031 104.105469 C 206.09375 104.292969 205.855469 104.789062 205.855469 104.789062 L 206.742188 104.964844 C 208.101562 106.035156 209.378906 106.222656 210.675781 106.796875 L 211.394531 107.210938 C 210.046875 107.199219 208.851562 107.261719 208.371094 107.488281 C 207.605469 107.847656 207.066406 108.207031 206.636719 108.519531 C 205.84375 108.394531 205.285156 108.234375 205.285156 108.234375 L 203.320312 113.007812 C 202.679688 114.550781 215.109375 118.835938 220.492188 120.335938 C 221.417969 120.589844 222.722656 119.894531 223.183594 119.15625 L 223.773438 118.242188 C 223.957031 118.40625 224.171875 118.542969 224.398438 118.664062 C 225.964844 119.496094 228.007812 118.914062 228.972656 117.371094 C 229.933594 115.828125 229.445312 113.9375 227.878906 113.109375 C 227.644531 112.980469 227.382812 112.894531 227.125 112.832031 C 227.355469 112.464844 227.785156 111.820312 228.050781 111.394531 C 228.25 111.582031 228.472656 111.769531 228.726562 111.902344 C 230.292969 112.730469 232.339844 112.152344 233.300781 110.609375 C 234.265625 109.066406 233.769531 107.128906 232.207031 106.300781 C 231.949219 106.164062 231.683594 106.089844 231.40625 106.027344 C 235.855469 98.90625 239.558594 93.039062 244.113281 85.664062 C 244.351562 85.945312 244.636719 86.210938 244.988281 86.394531 C 246.550781 87.222656 248.597656 86.644531 249.5625 85.101562 C 250.523438 83.554688 250.03125 81.621094 248.464844 80.789062 C 248.089844 80.589844 247.703125 80.445312 247.289062 80.402344 C 247.519531 80.027344 247.753906 79.691406 247.960938 79.347656 C 248.1875 79.589844 248.46875 79.777344 248.78125 79.941406 C 250.347656 80.769531 252.390625 80.191406 253.355469 78.648438 C 254.320312 77.101562 253.828125 75.210938 252.265625 74.382812 C 251.859375 74.167969 251.394531 74.039062 250.949219 74.003906 C 251.300781 71.484375 246.9375 67.949219 245.125 67.636719 C 244.546875 67.535156 243.878906 67.507812 243.136719 67.527344 Z M 227.59375 73.273438 C 227.988281 74.535156 229.277344 75.960938 229.875 76.636719 C 230.398438 77.230469 232.597656 78.523438 234.761719 79.699219 L 234.121094 79.738281 C 233.726562 79.734375 232.949219 80.722656 232.855469 80.875 C 232.757812 81.027344 230.464844 86.226562 230.464844 86.226562 L 230.007812 86.257812 L 229.496094 86.195312 L 225.449219 85.570312 L 227.910156 81.410156 L 228.679688 80.441406 C 228.679688 80.441406 228.917969 79.007812 228.28125 79.175781 C 228.207031 79.195312 228.160156 79.0625 228.078125 78.910156 C 228.25 77.90625 228.152344 76.890625 227.851562 75.976562 C 228.136719 75.804688 228.085938 74.917969 227.859375 74.59375 C 227.523438 74.105469 227.546875 73.609375 227.59375 73.273438 Z M 235.265625 81.878906 C 235.265625 81.878906 237.101562 81.792969 238.808594 81.796875 C 239.390625 82.238281 239.445312 82.957031 239.070312 83.808594 C 238.375 83.386719 237.582031 83.042969 236.953125 83.109375 C 235.933594 83.222656 235.152344 83.980469 234.484375 84.921875 C 234.890625 83.300781 235.265625 81.878906 235.265625 81.878906 Z M 215.628906 93.683594 L 222.265625 96.730469 C 221.582031 97.050781 220.285156 97.714844 219.773438 98.125 C 219.113281 98.65625 218.722656 105.007812 218.722656 105.007812 L 214.980469 103.398438 L 216.300781 100.875 L 215.425781 100.144531 L 216.019531 97.757812 L 215.371094 94.710938 Z M 223.117188 97.089844 L 225.015625 97.988281 L 223.5625 98.308594 Z M 227.742188 99.617188 C 227.78125 100.148438 227.273438 100.882812 226.488281 101.722656 C 226.132812 101.59375 225.777344 101.519531 225.464844 101.554688 C 225.183594 101.585938 224.945312 101.671875 224.695312 101.785156 L 224.820312 101.546875 L 224.03125 99.9375 Z M 227.742188 99.617188 " fill-opacity="1" fill-rule="nonzero"/></svg>