<svg width="1771" height="1118" viewBox="0 0 1771 1118" fill="none" xmlns="http://www.w3.org/2000/svg">
<rect width="1771" height="1118" fill="#1E1E1E"/>
<rect width="1728" height="1117" transform="translate(43 1)" fill="#00C8C1"/>
<path fill-rule="evenodd" clip-rule="evenodd" d="M623.906 0L581.811 46.5833C540.919 93.1667 457.932 186.333 447.108 279.5C437.486 372.667 498.824 465.833 520.473 559C540.919 652.167 447.108 753 466.405 865.5C466.405 1007 581.811 1118 581.811 1118H0.905396V1071.42C0.905396 1024.83 0.905396 931.667 0.905396 838.5C0.905396 745.333 0.905396 652.167 0.905396 559C0.905396 465.833 0.905396 372.667 0.905396 279.5C0.905396 186.333 0.905396 93.1667 0.905396 46.5833V0L623.906 0Z" fill="white"/>
</svg>
