<svg id="visual" viewBox="0 0 900 600" width="900" height="600" xmlns="http://www.w3.org/2000/svg" xmlns:xlink="http://www.w3.org/1999/xlink" version="1.1"><rect x="0" y="0" width="900" height="600" fill="#00C8C1"></rect><path d="M259 0L291.3 25C323.7 50 388.3 100 405.3 150C422.3 200 391.7 250 375 300C358.3 350 355.7 400 366.2 450C376.7 500 400.3 550 412.2 575L424 600L0 600L0 575C0 550 0 500 0 450C0 400 0 350 0 300C0 250 0 200 0 150C0 100 0 50 0 25L0 0Z" fill="#ffffff" stroke-linecap="round" stroke-linejoin="miter"></path></svg>