<?xml version="1.0" standalone="no"?>
<svg xmlns:xlink="http://www.w3.org/1999/xlink" id="wave" style="transform:rotate(0deg); transition: 0.3s" viewBox="0 0 1440 490" version="1.1" xmlns="http://www.w3.org/2000/svg"><defs><linearGradient id="sw-gradient-0" x1="0" x2="0" y1="1" y2="0"><stop stop-color="rgba(255, 255, 255, 1)" offset="0%"/><stop stop-color="rgba(255, 255, 255, 1)" offset="100%"/></linearGradient></defs><path style="transform:translate(0, 0px); opacity:1" fill="url(#sw-gradient-0)" d="M0,245L120,245C240,245,480,245,720,212.3C960,180,1200,114,1440,147C1680,180,1920,310,2160,359.3C2400,408,2640,376,2880,310.3C3120,245,3360,147,3600,147C3840,147,4080,245,4320,277.7C4560,310,4800,278,5040,277.7C5280,278,5520,310,5760,277.7C6000,245,6240,147,6480,138.8C6720,131,6960,212,7200,245C7440,278,7680,261,7920,253.2C8160,245,8400,245,8640,204.2C8880,163,9120,82,9360,40.8C9600,0,9840,0,10080,8.2C10320,16,10560,33,10800,65.3C11040,98,11280,147,11520,171.5C11760,196,12000,196,12240,163.3C12480,131,12720,65,12960,106.2C13200,147,13440,294,13680,367.5C13920,441,14160,441,14400,367.5C14640,294,14880,147,15120,106.2C15360,65,15600,131,15840,196C16080,261,16320,327,16560,318.5C16800,310,17040,229,17160,187.8L17280,147L17280,490L17160,490C17040,490,16800,490,16560,490C16320,490,16080,490,15840,490C15600,490,15360,490,15120,490C14880,490,14640,490,14400,490C14160,490,13920,490,13680,490C13440,490,13200,490,12960,490C12720,490,12480,490,12240,490C12000,490,11760,490,11520,490C11280,490,11040,490,10800,490C10560,490,10320,490,10080,490C9840,490,9600,490,9360,490C9120,490,8880,490,8640,490C8400,490,8160,490,7920,490C7680,490,7440,490,7200,490C6960,490,6720,490,6480,490C6240,490,6000,490,5760,490C5520,490,5280,490,5040,490C4800,490,4560,490,4320,490C4080,490,3840,490,3600,490C3360,490,3120,490,2880,490C2640,490,2400,490,2160,490C1920,490,1680,490,1440,490C1200,490,960,490,720,490C480,490,240,490,120,490L0,490Z"/></svg>